ISO-10303-21;
HEADER;
/* Generated by software containing ST-Developer
 * from STEP Tools, Inc. (www.steptools.com) 
 */

FILE_DESCRIPTION(
/* description */ (''),
/* implementation_level */ '2;1');

FILE_NAME(
/* name */ 'green led.step',
/* time_stamp */ '2026-05-10T00:36:58+05:30',
/* author */ (''),
/* organization */ (''),
/* preprocessor_version */ 'ST-DEVELOPER v20.1',
/* originating_system */ 'Autodesk Translation Framework v15.8.0.0',
/* authorisation */ '');

FILE_SCHEMA (('AUTOMOTIVE_DESIGN { 1 0 10303 214 3 1 1 }'));
ENDSEC;

DATA;
#10=MECHANICAL_DESIGN_GEOMETRIC_PRESENTATION_REPRESENTATION('',(#13,#14,
#15),#490);
#11=SHAPE_REPRESENTATION_RELATIONSHIP('SRR','None',#497,#12);
#12=ADVANCED_BREP_SHAPE_REPRESENTATION('',(#16,#17,#18),#489);
#13=STYLED_ITEM('',(#507),#16);
#14=STYLED_ITEM('',(#508),#17);
#15=STYLED_ITEM('',(#508),#18);
#16=MANIFOLD_SOLID_BREP('Body2',#262);
#17=MANIFOLD_SOLID_BREP('Body4',#263);
#18=MANIFOLD_SOLID_BREP('Body3',#264);
#19=(
BOUNDED_SURFACE()
B_SPLINE_SURFACE(2,2,((#388,#389,#390,#391,#392,#393,#394,#395,#396),(#397,
#398,#399,#400,#401,#402,#403,#404,#405),(#406,#407,#408,#409,#410,#411,
#412,#413,#414),(#415,#416,#417,#418,#419,#420,#421,#422,#423),(#424,#425,
#426,#427,#428,#429,#430,#431,#432)),.UNSPECIFIED.,.F.,.T.,.F.)
B_SPLINE_SURFACE_WITH_KNOTS((3,2,3),(3,2,2,2,3),(1.0449157878825E-15,0.862170054667227,
1.72434010933445),(-3.14159265358979,-1.5707963267949,0.,1.5707963267949,
3.14159265358979),.UNSPECIFIED.)
GEOMETRIC_REPRESENTATION_ITEM()
RATIONAL_B_SPLINE_SURFACE(((1.,0.707106781186548,1.,0.707106781186548,1.,
0.707106781186548,1.,0.707106781186548,1.),(0.90851289849291,0.642415631319782,
0.90851289849291,0.642415631319782,0.90851289849291,0.642415631319782,0.90851289849291,
0.642415631319782,0.90851289849291),(1.,0.707106781186548,1.,0.707106781186548,
1.,0.707106781186548,1.,0.707106781186548,1.),(0.908512898492909,0.642415631319782,
0.908512898492909,0.642415631319782,0.908512898492909,0.642415631319782,
0.908512898492909,0.642415631319782,0.908512898492909),(1.,0.707106781186548,
1.,0.707106781186548,1.,0.707106781186548,1.,0.707106781186548,1.)))
REPRESENTATION_ITEM('')
SURFACE()
);
#20=PLANE('',#284);
#21=PLANE('',#288);
#22=PLANE('',#289);
#23=PLANE('',#290);
#24=PLANE('',#291);
#25=PLANE('',#292);
#26=PLANE('',#293);
#27=PLANE('',#294);
#28=PLANE('',#295);
#29=PLANE('',#296);
#30=PLANE('',#297);
#31=PLANE('',#298);
#32=PLANE('',#299);
#33=LINE('',#381,#59);
#34=LINE('',#387,#60);
#35=LINE('',#438,#61);
#36=LINE('',#440,#62);
#37=LINE('',#442,#63);
#38=LINE('',#443,#64);
#39=LINE('',#446,#65);
#40=LINE('',#448,#66);
#41=LINE('',#449,#67);
#42=LINE('',#452,#68);
#43=LINE('',#454,#69);
#44=LINE('',#455,#70);
#45=LINE('',#457,#71);
#46=LINE('',#458,#72);
#47=LINE('',#464,#73);
#48=LINE('',#466,#74);
#49=LINE('',#468,#75);
#50=LINE('',#469,#76);
#51=LINE('',#472,#77);
#52=LINE('',#474,#78);
#53=LINE('',#475,#79);
#54=LINE('',#478,#80);
#55=LINE('',#480,#81);
#56=LINE('',#481,#82);
#57=LINE('',#483,#83);
#58=LINE('',#484,#84);
#59=VECTOR('',#312,2.75);
#60=VECTOR('',#321,2.45);
#61=VECTOR('',#326,10.);
#62=VECTOR('',#327,10.);
#63=VECTOR('',#328,10.);
#64=VECTOR('',#329,10.);
#65=VECTOR('',#332,10.);
#66=VECTOR('',#333,10.);
#67=VECTOR('',#334,10.);
#68=VECTOR('',#337,10.);
#69=VECTOR('',#338,10.);
#70=VECTOR('',#339,10.);
#71=VECTOR('',#342,10.);
#72=VECTOR('',#343,10.);
#73=VECTOR('',#350,10.);
#74=VECTOR('',#351,10.);
#75=VECTOR('',#352,10.);
#76=VECTOR('',#353,10.);
#77=VECTOR('',#356,10.);
#78=VECTOR('',#357,10.);
#79=VECTOR('',#358,10.);
#80=VECTOR('',#361,10.);
#81=VECTOR('',#362,10.);
#82=VECTOR('',#363,10.);
#83=VECTOR('',#366,10.);
#84=VECTOR('',#367,10.);
#85=CYLINDRICAL_SURFACE('',#282,2.75);
#86=CYLINDRICAL_SURFACE('',#285,2.45);
#87=FACE_OUTER_BOUND('',#104,.T.);
#88=FACE_OUTER_BOUND('',#105,.T.);
#89=FACE_OUTER_BOUND('',#106,.T.);
#90=FACE_OUTER_BOUND('',#107,.T.);
#91=FACE_OUTER_BOUND('',#108,.T.);
#92=FACE_OUTER_BOUND('',#109,.T.);
#93=FACE_OUTER_BOUND('',#110,.T.);
#94=FACE_OUTER_BOUND('',#111,.T.);
#95=FACE_OUTER_BOUND('',#112,.T.);
#96=FACE_OUTER_BOUND('',#113,.T.);
#97=FACE_OUTER_BOUND('',#114,.T.);
#98=FACE_OUTER_BOUND('',#115,.T.);
#99=FACE_OUTER_BOUND('',#116,.T.);
#100=FACE_OUTER_BOUND('',#117,.T.);
#101=FACE_OUTER_BOUND('',#118,.T.);
#102=FACE_OUTER_BOUND('',#119,.T.);
#103=FACE_OUTER_BOUND('',#120,.T.);
#104=EDGE_LOOP('',(#180,#181,#182,#183));
#105=EDGE_LOOP('',(#184,#185,#186,#187));
#106=EDGE_LOOP('',(#188));
#107=EDGE_LOOP('',(#189,#190,#191,#192));
#108=EDGE_LOOP('',(#193,#194,#195));
#109=EDGE_LOOP('',(#196,#197,#198,#199));
#110=EDGE_LOOP('',(#200,#201,#202,#203));
#111=EDGE_LOOP('',(#204,#205,#206,#207));
#112=EDGE_LOOP('',(#208,#209,#210,#211));
#113=EDGE_LOOP('',(#212,#213,#214,#215));
#114=EDGE_LOOP('',(#216,#217,#218,#219));
#115=EDGE_LOOP('',(#220,#221,#222,#223));
#116=EDGE_LOOP('',(#224,#225,#226,#227));
#117=EDGE_LOOP('',(#228,#229,#230,#231));
#118=EDGE_LOOP('',(#232,#233,#234,#235));
#119=EDGE_LOOP('',(#236,#237,#238,#239));
#120=EDGE_LOOP('',(#240,#241,#242,#243));
#121=CIRCLE('',#279,2.75);
#122=CIRCLE('',#280,0.35);
#123=CIRCLE('',#281,2.45);
#124=CIRCLE('',#283,2.75);
#125=CIRCLE('',#286,2.45);
#126=CIRCLE('',#287,2.125);
#127=VERTEX_POINT('',#374);
#128=VERTEX_POINT('',#376);
#129=VERTEX_POINT('',#380);
#130=VERTEX_POINT('',#385);
#131=VERTEX_POINT('',#433);
#132=VERTEX_POINT('',#436);
#133=VERTEX_POINT('',#437);
#134=VERTEX_POINT('',#439);
#135=VERTEX_POINT('',#441);
#136=VERTEX_POINT('',#445);
#137=VERTEX_POINT('',#447);
#138=VERTEX_POINT('',#451);
#139=VERTEX_POINT('',#453);
#140=VERTEX_POINT('',#462);
#141=VERTEX_POINT('',#463);
#142=VERTEX_POINT('',#465);
#143=VERTEX_POINT('',#467);
#144=VERTEX_POINT('',#471);
#145=VERTEX_POINT('',#473);
#146=VERTEX_POINT('',#477);
#147=VERTEX_POINT('',#479);
#148=EDGE_CURVE('',#127,#127,#121,.T.);
#149=EDGE_CURVE('',#127,#128,#122,.T.);
#150=EDGE_CURVE('',#128,#128,#123,.T.);
#151=EDGE_CURVE('',#127,#129,#33,.T.);
#152=EDGE_CURVE('',#129,#129,#124,.T.);
#153=EDGE_CURVE('',#130,#130,#125,.T.);
#154=EDGE_CURVE('',#130,#128,#34,.T.);
#155=EDGE_CURVE('',#131,#130,#126,.T.);
#156=EDGE_CURVE('',#132,#133,#35,.T.);
#157=EDGE_CURVE('',#132,#134,#36,.T.);
#158=EDGE_CURVE('',#135,#134,#37,.T.);
#159=EDGE_CURVE('',#133,#135,#38,.T.);
#160=EDGE_CURVE('',#133,#136,#39,.T.);
#161=EDGE_CURVE('',#137,#135,#40,.T.);
#162=EDGE_CURVE('',#136,#137,#41,.T.);
#163=EDGE_CURVE('',#136,#138,#42,.T.);
#164=EDGE_CURVE('',#139,#137,#43,.T.);
#165=EDGE_CURVE('',#138,#139,#44,.T.);
#166=EDGE_CURVE('',#138,#132,#45,.T.);
#167=EDGE_CURVE('',#134,#139,#46,.T.);
#168=EDGE_CURVE('',#140,#141,#47,.T.);
#169=EDGE_CURVE('',#140,#142,#48,.T.);
#170=EDGE_CURVE('',#143,#142,#49,.T.);
#171=EDGE_CURVE('',#141,#143,#50,.T.);
#172=EDGE_CURVE('',#141,#144,#51,.T.);
#173=EDGE_CURVE('',#145,#143,#52,.T.);
#174=EDGE_CURVE('',#144,#145,#53,.T.);
#175=EDGE_CURVE('',#144,#146,#54,.T.);
#176=EDGE_CURVE('',#147,#145,#55,.T.);
#177=EDGE_CURVE('',#146,#147,#56,.T.);
#178=EDGE_CURVE('',#146,#140,#57,.T.);
#179=EDGE_CURVE('',#142,#147,#58,.T.);
#180=ORIENTED_EDGE('',*,*,#148,.T.);
#181=ORIENTED_EDGE('',*,*,#149,.T.);
#182=ORIENTED_EDGE('',*,*,#150,.F.);
#183=ORIENTED_EDGE('',*,*,#149,.F.);
#184=ORIENTED_EDGE('',*,*,#148,.F.);
#185=ORIENTED_EDGE('',*,*,#151,.T.);
#186=ORIENTED_EDGE('',*,*,#152,.T.);
#187=ORIENTED_EDGE('',*,*,#151,.F.);
#188=ORIENTED_EDGE('',*,*,#152,.F.);
#189=ORIENTED_EDGE('',*,*,#153,.F.);
#190=ORIENTED_EDGE('',*,*,#154,.T.);
#191=ORIENTED_EDGE('',*,*,#150,.T.);
#192=ORIENTED_EDGE('',*,*,#154,.F.);
#193=ORIENTED_EDGE('',*,*,#155,.T.);
#194=ORIENTED_EDGE('',*,*,#153,.T.);
#195=ORIENTED_EDGE('',*,*,#155,.F.);
#196=ORIENTED_EDGE('',*,*,#156,.F.);
#197=ORIENTED_EDGE('',*,*,#157,.T.);
#198=ORIENTED_EDGE('',*,*,#158,.F.);
#199=ORIENTED_EDGE('',*,*,#159,.F.);
#200=ORIENTED_EDGE('',*,*,#160,.F.);
#201=ORIENTED_EDGE('',*,*,#159,.T.);
#202=ORIENTED_EDGE('',*,*,#161,.F.);
#203=ORIENTED_EDGE('',*,*,#162,.F.);
#204=ORIENTED_EDGE('',*,*,#163,.F.);
#205=ORIENTED_EDGE('',*,*,#162,.T.);
#206=ORIENTED_EDGE('',*,*,#164,.F.);
#207=ORIENTED_EDGE('',*,*,#165,.F.);
#208=ORIENTED_EDGE('',*,*,#166,.F.);
#209=ORIENTED_EDGE('',*,*,#165,.T.);
#210=ORIENTED_EDGE('',*,*,#167,.F.);
#211=ORIENTED_EDGE('',*,*,#157,.F.);
#212=ORIENTED_EDGE('',*,*,#167,.T.);
#213=ORIENTED_EDGE('',*,*,#164,.T.);
#214=ORIENTED_EDGE('',*,*,#161,.T.);
#215=ORIENTED_EDGE('',*,*,#158,.T.);
#216=ORIENTED_EDGE('',*,*,#166,.T.);
#217=ORIENTED_EDGE('',*,*,#156,.T.);
#218=ORIENTED_EDGE('',*,*,#160,.T.);
#219=ORIENTED_EDGE('',*,*,#163,.T.);
#220=ORIENTED_EDGE('',*,*,#168,.F.);
#221=ORIENTED_EDGE('',*,*,#169,.T.);
#222=ORIENTED_EDGE('',*,*,#170,.F.);
#223=ORIENTED_EDGE('',*,*,#171,.F.);
#224=ORIENTED_EDGE('',*,*,#172,.F.);
#225=ORIENTED_EDGE('',*,*,#171,.T.);
#226=ORIENTED_EDGE('',*,*,#173,.F.);
#227=ORIENTED_EDGE('',*,*,#174,.F.);
#228=ORIENTED_EDGE('',*,*,#175,.F.);
#229=ORIENTED_EDGE('',*,*,#174,.T.);
#230=ORIENTED_EDGE('',*,*,#176,.F.);
#231=ORIENTED_EDGE('',*,*,#177,.F.);
#232=ORIENTED_EDGE('',*,*,#178,.F.);
#233=ORIENTED_EDGE('',*,*,#177,.T.);
#234=ORIENTED_EDGE('',*,*,#179,.F.);
#235=ORIENTED_EDGE('',*,*,#169,.F.);
#236=ORIENTED_EDGE('',*,*,#179,.T.);
#237=ORIENTED_EDGE('',*,*,#176,.T.);
#238=ORIENTED_EDGE('',*,*,#173,.T.);
#239=ORIENTED_EDGE('',*,*,#170,.T.);
#240=ORIENTED_EDGE('',*,*,#178,.T.);
#241=ORIENTED_EDGE('',*,*,#168,.T.);
#242=ORIENTED_EDGE('',*,*,#172,.T.);
#243=ORIENTED_EDGE('',*,*,#175,.T.);
#244=TOROIDAL_SURFACE('',#278,2.4,0.35);
#245=ADVANCED_FACE('',(#87),#244,.T.);
#246=ADVANCED_FACE('',(#88),#85,.T.);
#247=ADVANCED_FACE('',(#89),#20,.T.);
#248=ADVANCED_FACE('',(#90),#86,.T.);
#249=ADVANCED_FACE('',(#91),#19,.F.);
#250=ADVANCED_FACE('',(#92),#21,.T.);
#251=ADVANCED_FACE('',(#93),#22,.T.);
#252=ADVANCED_FACE('',(#94),#23,.T.);
#253=ADVANCED_FACE('',(#95),#24,.T.);
#254=ADVANCED_FACE('',(#96),#25,.T.);
#255=ADVANCED_FACE('',(#97),#26,.F.);
#256=ADVANCED_FACE('',(#98),#27,.T.);
#257=ADVANCED_FACE('',(#99),#28,.T.);
#258=ADVANCED_FACE('',(#100),#29,.T.);
#259=ADVANCED_FACE('',(#101),#30,.T.);
#260=ADVANCED_FACE('',(#102),#31,.T.);
#261=ADVANCED_FACE('',(#103),#32,.F.);
#262=CLOSED_SHELL('',(#245,#246,#247,#248,#249));
#263=CLOSED_SHELL('',(#250,#251,#252,#253,#254,#255));
#264=CLOSED_SHELL('',(#256,#257,#258,#259,#260,#261));
#265=DERIVED_UNIT_ELEMENT(#267,1.);
#266=DERIVED_UNIT_ELEMENT(#492,-3.);
#267=(
MASS_UNIT()
NAMED_UNIT(*)
SI_UNIT(.KILO.,.GRAM.)
);
#268=DERIVED_UNIT((#265,#266));
#269=MEASURE_REPRESENTATION_ITEM('density measure',
POSITIVE_RATIO_MEASURE(7850.),#268);
#270=PROPERTY_DEFINITION_REPRESENTATION(#275,#272);
#271=PROPERTY_DEFINITION_REPRESENTATION(#276,#273);
#272=REPRESENTATION('material name',(#274),#489);
#273=REPRESENTATION('density',(#269),#489);
#274=DESCRIPTIVE_REPRESENTATION_ITEM('Steel','Steel');
#275=PROPERTY_DEFINITION('material property','material name',#499);
#276=PROPERTY_DEFINITION('material property','density of part',#499);
#277=AXIS2_PLACEMENT_3D('',#372,#300,#301);
#278=AXIS2_PLACEMENT_3D('',#373,#302,#303);
#279=AXIS2_PLACEMENT_3D('',#375,#304,#305);
#280=AXIS2_PLACEMENT_3D('',#377,#306,#307);
#281=AXIS2_PLACEMENT_3D('',#378,#308,#309);
#282=AXIS2_PLACEMENT_3D('',#379,#310,#311);
#283=AXIS2_PLACEMENT_3D('',#382,#313,#314);
#284=AXIS2_PLACEMENT_3D('',#383,#315,#316);
#285=AXIS2_PLACEMENT_3D('',#384,#317,#318);
#286=AXIS2_PLACEMENT_3D('',#386,#319,#320);
#287=AXIS2_PLACEMENT_3D('',#434,#322,#323);
#288=AXIS2_PLACEMENT_3D('',#435,#324,#325);
#289=AXIS2_PLACEMENT_3D('',#444,#330,#331);
#290=AXIS2_PLACEMENT_3D('',#450,#335,#336);
#291=AXIS2_PLACEMENT_3D('',#456,#340,#341);
#292=AXIS2_PLACEMENT_3D('',#459,#344,#345);
#293=AXIS2_PLACEMENT_3D('',#460,#346,#347);
#294=AXIS2_PLACEMENT_3D('',#461,#348,#349);
#295=AXIS2_PLACEMENT_3D('',#470,#354,#355);
#296=AXIS2_PLACEMENT_3D('',#476,#359,#360);
#297=AXIS2_PLACEMENT_3D('',#482,#364,#365);
#298=AXIS2_PLACEMENT_3D('',#485,#368,#369);
#299=AXIS2_PLACEMENT_3D('',#486,#370,#371);
#300=DIRECTION('axis',(0.,0.,1.));
#301=DIRECTION('refdir',(1.,0.,0.));
#302=DIRECTION('center_axis',(0.,0.,-1.));
#303=DIRECTION('ref_axis',(1.,-1.27567374911183E-16,0.));
#304=DIRECTION('center_axis',(0.,0.,1.));
#305=DIRECTION('ref_axis',(1.,-1.27567374911183E-16,0.));
#306=DIRECTION('center_axis',(5.1026949964473E-18,1.,0.));
#307=DIRECTION('ref_axis',(-1.,5.1026949964473E-18,0.));
#308=DIRECTION('center_axis',(0.,0.,1.));
#309=DIRECTION('ref_axis',(1.,0.,0.));
#310=DIRECTION('center_axis',(0.,0.,1.));
#311=DIRECTION('ref_axis',(1.,0.,0.));
#312=DIRECTION('',(0.,0.,-1.));
#313=DIRECTION('center_axis',(0.,0.,1.));
#314=DIRECTION('ref_axis',(1.,0.,0.));
#315=DIRECTION('center_axis',(0.,0.,-1.));
#316=DIRECTION('ref_axis',(-1.,0.,0.));
#317=DIRECTION('center_axis',(0.,0.,1.));
#318=DIRECTION('ref_axis',(1.,0.,0.));
#319=DIRECTION('center_axis',(0.,0.,1.));
#320=DIRECTION('ref_axis',(1.,0.,0.));
#321=DIRECTION('',(0.,0.,-1.));
#322=DIRECTION('center_axis',(1.22464679914735E-16,-1.,0.));
#323=DIRECTION('ref_axis',(-1.,-1.22464679914735E-16,0.));
#324=DIRECTION('center_axis',(1.,0.,0.));
#325=DIRECTION('ref_axis',(0.,-1.,0.));
#326=DIRECTION('',(0.,1.,0.));
#327=DIRECTION('',(0.,0.,-1.));
#328=DIRECTION('',(0.,-1.,0.));
#329=DIRECTION('',(0.,0.,-1.));
#330=DIRECTION('center_axis',(0.,1.,0.));
#331=DIRECTION('ref_axis',(1.,0.,0.));
#332=DIRECTION('',(-1.,0.,0.));
#333=DIRECTION('',(1.,0.,0.));
#334=DIRECTION('',(0.,0.,-1.));
#335=DIRECTION('center_axis',(-1.,0.,0.));
#336=DIRECTION('ref_axis',(0.,1.,0.));
#337=DIRECTION('',(0.,-1.,0.));
#338=DIRECTION('',(0.,1.,0.));
#339=DIRECTION('',(0.,0.,-1.));
#340=DIRECTION('center_axis',(0.,-1.,0.));
#341=DIRECTION('ref_axis',(-1.,0.,0.));
#342=DIRECTION('',(1.,0.,0.));
#343=DIRECTION('',(-1.,0.,0.));
#344=DIRECTION('center_axis',(0.,0.,-1.));
#345=DIRECTION('ref_axis',(-1.,0.,0.));
#346=DIRECTION('center_axis',(0.,0.,-1.));
#347=DIRECTION('ref_axis',(1.,0.,0.));
#348=DIRECTION('center_axis',(1.,0.,0.));
#349=DIRECTION('ref_axis',(0.,-1.,0.));
#350=DIRECTION('',(0.,1.,0.));
#351=DIRECTION('',(0.,0.,-1.));
#352=DIRECTION('',(0.,-1.,0.));
#353=DIRECTION('',(0.,0.,-1.));
#354=DIRECTION('center_axis',(0.,1.,0.));
#355=DIRECTION('ref_axis',(1.,0.,0.));
#356=DIRECTION('',(-1.,0.,0.));
#357=DIRECTION('',(1.,0.,0.));
#358=DIRECTION('',(0.,0.,-1.));
#359=DIRECTION('center_axis',(-1.,0.,0.));
#360=DIRECTION('ref_axis',(0.,1.,0.));
#361=DIRECTION('',(0.,-1.,0.));
#362=DIRECTION('',(0.,1.,0.));
#363=DIRECTION('',(0.,0.,-1.));
#364=DIRECTION('center_axis',(0.,-1.,0.));
#365=DIRECTION('ref_axis',(-1.,0.,0.));
#366=DIRECTION('',(1.,0.,0.));
#367=DIRECTION('',(-1.,0.,0.));
#368=DIRECTION('center_axis',(0.,0.,-1.));
#369=DIRECTION('ref_axis',(-1.,0.,0.));
#370=DIRECTION('center_axis',(0.,0.,-1.));
#371=DIRECTION('ref_axis',(1.,0.,0.));
#372=CARTESIAN_POINT('',(0.,0.,0.));
#373=CARTESIAN_POINT('Origin',(0.,0.,0.723589838486224));
#374=CARTESIAN_POINT('',(-2.75,1.403241124023E-17,0.723589838486224));
#375=CARTESIAN_POINT('Origin',(0.,0.,0.723589838486224));
#376=CARTESIAN_POINT('',(-2.45,1.25016027412959E-17,1.07));
#377=CARTESIAN_POINT('Origin',(-2.4,1.22464679914735E-17,0.723589838486224));
#378=CARTESIAN_POINT('Origin',(0.,0.,1.07));
#379=CARTESIAN_POINT('Origin',(0.,0.,0.535));
#380=CARTESIAN_POINT('',(-2.75,-3.36777869765522E-16,0.));
#381=CARTESIAN_POINT('',(-2.75,-3.36777869765522E-16,0.535));
#382=CARTESIAN_POINT('Origin',(0.,0.,0.));
#383=CARTESIAN_POINT('Origin',(2.75,0.,0.));
#384=CARTESIAN_POINT('Origin',(0.,0.,3.735));
#385=CARTESIAN_POINT('',(-2.45,-3.00038465791102E-16,6.4));
#386=CARTESIAN_POINT('Origin',(0.,0.,6.4));
#387=CARTESIAN_POINT('',(-2.45,-3.00038465791102E-16,3.735));
#388=CARTESIAN_POINT('Ctrl Pts',(-2.45,0.,6.4));
#389=CARTESIAN_POINT('Ctrl Pts',(-2.45,-2.45,6.4));
#390=CARTESIAN_POINT('Ctrl Pts',(0.,-2.45,6.4));
#391=CARTESIAN_POINT('Ctrl Pts',(2.45,-2.45,6.4));
#392=CARTESIAN_POINT('Ctrl Pts',(2.45,0.,6.4));
#393=CARTESIAN_POINT('Ctrl Pts',(2.45,2.45,6.4));
#394=CARTESIAN_POINT('Ctrl Pts',(0.,2.45,6.4));
#395=CARTESIAN_POINT('Ctrl Pts',(-2.45,2.45,6.4));
#396=CARTESIAN_POINT('Ctrl Pts',(-2.45,0.,6.4));
#397=CARTESIAN_POINT('Ctrl Pts',(-2.45,0.,7.37736171024963));
#398=CARTESIAN_POINT('Ctrl Pts',(-2.45,-2.45,7.37736171024963));
#399=CARTESIAN_POINT('Ctrl Pts',(0.,-2.45,7.37736171024963));
#400=CARTESIAN_POINT('Ctrl Pts',(2.45,-2.45,7.37736171024963));
#401=CARTESIAN_POINT('Ctrl Pts',(2.45,0.,7.37736171024963));
#402=CARTESIAN_POINT('Ctrl Pts',(2.45,2.45,7.37736171024963));
#403=CARTESIAN_POINT('Ctrl Pts',(0.,2.45,7.37736171024963));
#404=CARTESIAN_POINT('Ctrl Pts',(-2.45,2.45,7.37736171024963));
#405=CARTESIAN_POINT('Ctrl Pts',(-2.45,0.,7.37736171024963));
#406=CARTESIAN_POINT('Ctrl Pts',(-1.70793166859393,0.,8.01342028002626));
#407=CARTESIAN_POINT('Ctrl Pts',(-1.70793166859393,-1.70793166859393,8.01342028002626));
#408=CARTESIAN_POINT('Ctrl Pts',(0.,-1.70793166859393,8.01342028002626));
#409=CARTESIAN_POINT('Ctrl Pts',(1.70793166859393,-1.70793166859393,8.01342028002626));
#410=CARTESIAN_POINT('Ctrl Pts',(1.70793166859393,0.,8.01342028002626));
#411=CARTESIAN_POINT('Ctrl Pts',(1.70793166859393,1.70793166859393,8.01342028002626));
#412=CARTESIAN_POINT('Ctrl Pts',(0.,1.70793166859393,8.01342028002626));
#413=CARTESIAN_POINT('Ctrl Pts',(-1.70793166859393,1.70793166859393,8.01342028002626));
#414=CARTESIAN_POINT('Ctrl Pts',(-1.70793166859393,0.,8.01342028002626));
#415=CARTESIAN_POINT('Ctrl Pts',(-0.965863337187865,0.,8.64947884980288));
#416=CARTESIAN_POINT('Ctrl Pts',(-0.965863337187864,-0.965863337187864,
8.64947884980288));
#417=CARTESIAN_POINT('Ctrl Pts',(0.,-0.965863337187865,8.64947884980288));
#418=CARTESIAN_POINT('Ctrl Pts',(0.965863337187864,-0.965863337187864,8.64947884980288));
#419=CARTESIAN_POINT('Ctrl Pts',(0.965863337187865,0.,8.64947884980288));
#420=CARTESIAN_POINT('Ctrl Pts',(0.965863337187864,0.965863337187864,8.64947884980288));
#421=CARTESIAN_POINT('Ctrl Pts',(0.,0.965863337187865,8.64947884980288));
#422=CARTESIAN_POINT('Ctrl Pts',(-0.965863337187864,0.965863337187864,8.64947884980288));
#423=CARTESIAN_POINT('Ctrl Pts',(-0.965863337187865,0.,8.64947884980288));
#424=CARTESIAN_POINT('Ctrl Pts',(2.08166817117217E-16,0.,8.5));
#425=CARTESIAN_POINT('Ctrl Pts',(2.08166817117217E-16,2.08166817117217E-16,
8.5));
#426=CARTESIAN_POINT('Ctrl Pts',(0.,2.08166817117217E-16,8.5));
#427=CARTESIAN_POINT('Ctrl Pts',(-2.08166817117217E-16,2.08166817117217E-16,
8.5));
#428=CARTESIAN_POINT('Ctrl Pts',(-2.08166817117217E-16,0.,8.5));
#429=CARTESIAN_POINT('Ctrl Pts',(-2.08166817117217E-16,-2.08166817117217E-16,
8.5));
#430=CARTESIAN_POINT('Ctrl Pts',(0.,-2.08166817117217E-16,8.5));
#431=CARTESIAN_POINT('Ctrl Pts',(2.08166817117217E-16,-2.08166817117217E-16,
8.5));
#432=CARTESIAN_POINT('Ctrl Pts',(2.08166817117217E-16,0.,8.5));
#433=CARTESIAN_POINT('',(0.,0.,8.5));
#434=CARTESIAN_POINT('Origin',(-0.324999999999999,-3.98010209722888E-17,
6.4));
#435=CARTESIAN_POINT('Origin',(1.775,0.2,0.));
#436=CARTESIAN_POINT('',(1.775,-0.2,0.));
#437=CARTESIAN_POINT('',(1.775,0.2,0.));
#438=CARTESIAN_POINT('',(1.775,-0.2,0.));
#439=CARTESIAN_POINT('',(1.775,-0.2,-28.));
#440=CARTESIAN_POINT('',(1.775,-0.2,0.));
#441=CARTESIAN_POINT('',(1.775,0.2,-28.));
#442=CARTESIAN_POINT('',(1.775,-0.2,-28.));
#443=CARTESIAN_POINT('',(1.775,0.2,0.));
#444=CARTESIAN_POINT('Origin',(1.275,0.2,0.));
#445=CARTESIAN_POINT('',(1.275,0.2,0.));
#446=CARTESIAN_POINT('',(1.775,0.2,0.));
#447=CARTESIAN_POINT('',(1.275,0.2,-28.));
#448=CARTESIAN_POINT('',(1.775,0.2,-28.));
#449=CARTESIAN_POINT('',(1.275,0.2,0.));
#450=CARTESIAN_POINT('Origin',(1.275,-0.2,0.));
#451=CARTESIAN_POINT('',(1.275,-0.2,0.));
#452=CARTESIAN_POINT('',(1.275,0.2,0.));
#453=CARTESIAN_POINT('',(1.275,-0.2,-28.));
#454=CARTESIAN_POINT('',(1.275,0.2,-28.));
#455=CARTESIAN_POINT('',(1.275,-0.2,0.));
#456=CARTESIAN_POINT('Origin',(1.775,-0.2,0.));
#457=CARTESIAN_POINT('',(1.275,-0.2,0.));
#458=CARTESIAN_POINT('',(1.275,-0.2,-28.));
#459=CARTESIAN_POINT('Origin',(1.525,0.,-28.));
#460=CARTESIAN_POINT('Origin',(1.525,0.,0.));
#461=CARTESIAN_POINT('Origin',(-1.275,0.2,0.));
#462=CARTESIAN_POINT('',(-1.275,-0.2,0.));
#463=CARTESIAN_POINT('',(-1.275,0.2,0.));
#464=CARTESIAN_POINT('',(-1.275,-0.2,0.));
#465=CARTESIAN_POINT('',(-1.275,-0.2,-26.));
#466=CARTESIAN_POINT('',(-1.275,-0.2,0.));
#467=CARTESIAN_POINT('',(-1.275,0.2,-26.));
#468=CARTESIAN_POINT('',(-1.275,-0.2,-26.));
#469=CARTESIAN_POINT('',(-1.275,0.2,0.));
#470=CARTESIAN_POINT('Origin',(-1.775,0.2,0.));
#471=CARTESIAN_POINT('',(-1.775,0.2,0.));
#472=CARTESIAN_POINT('',(-1.275,0.2,0.));
#473=CARTESIAN_POINT('',(-1.775,0.2,-26.));
#474=CARTESIAN_POINT('',(-1.275,0.2,-26.));
#475=CARTESIAN_POINT('',(-1.775,0.2,0.));
#476=CARTESIAN_POINT('Origin',(-1.775,-0.2,0.));
#477=CARTESIAN_POINT('',(-1.775,-0.2,0.));
#478=CARTESIAN_POINT('',(-1.775,0.2,0.));
#479=CARTESIAN_POINT('',(-1.775,-0.2,-26.));
#480=CARTESIAN_POINT('',(-1.775,0.2,-26.));
#481=CARTESIAN_POINT('',(-1.775,-0.2,0.));
#482=CARTESIAN_POINT('Origin',(-1.275,-0.2,0.));
#483=CARTESIAN_POINT('',(-1.775,-0.2,0.));
#484=CARTESIAN_POINT('',(-1.775,-0.2,-26.));
#485=CARTESIAN_POINT('Origin',(-1.525,0.,-26.));
#486=CARTESIAN_POINT('Origin',(-1.525,0.,0.));
#487=UNCERTAINTY_MEASURE_WITH_UNIT(LENGTH_MEASURE(0.01),#491,
'DISTANCE_ACCURACY_VALUE',
'Maximum model space distance between geometric entities at asserted c
onnectivities');
#488=UNCERTAINTY_MEASURE_WITH_UNIT(LENGTH_MEASURE(0.01),#491,
'DISTANCE_ACCURACY_VALUE',
'Maximum model space distance between geometric entities at asserted c
onnectivities');
#489=(
GEOMETRIC_REPRESENTATION_CONTEXT(3)
GLOBAL_UNCERTAINTY_ASSIGNED_CONTEXT((#487))
GLOBAL_UNIT_ASSIGNED_CONTEXT((#491,#493,#494))
REPRESENTATION_CONTEXT('','3D')
);
#490=(
GEOMETRIC_REPRESENTATION_CONTEXT(3)
GLOBAL_UNCERTAINTY_ASSIGNED_CONTEXT((#488))
GLOBAL_UNIT_ASSIGNED_CONTEXT((#491,#493,#494))
REPRESENTATION_CONTEXT('','3D')
);
#491=(
LENGTH_UNIT()
NAMED_UNIT(*)
SI_UNIT(.MILLI.,.METRE.)
);
#492=(
LENGTH_UNIT()
NAMED_UNIT(*)
SI_UNIT($,.METRE.)
);
#493=(
NAMED_UNIT(*)
PLANE_ANGLE_UNIT()
SI_UNIT($,.RADIAN.)
);
#494=(
NAMED_UNIT(*)
SI_UNIT($,.STERADIAN.)
SOLID_ANGLE_UNIT()
);
#495=SHAPE_DEFINITION_REPRESENTATION(#496,#497);
#496=PRODUCT_DEFINITION_SHAPE('',$,#499);
#497=SHAPE_REPRESENTATION('',(#277),#489);
#498=PRODUCT_DEFINITION_CONTEXT('part definition',#503,'design');
#499=PRODUCT_DEFINITION('green led','green led v1',#500,#498);
#500=PRODUCT_DEFINITION_FORMATION('',$,#505);
#501=PRODUCT_RELATED_PRODUCT_CATEGORY('green led v1','green led v1',(#505));
#502=APPLICATION_PROTOCOL_DEFINITION('international standard',
'automotive_design',2009,#503);
#503=APPLICATION_CONTEXT(
'Core Data for Automotive Mechanical Design Process');
#504=PRODUCT_CONTEXT('part definition',#503,'mechanical');
#505=PRODUCT('green led','green led v1',$,(#504));
#506=PRESENTATION_STYLE_ASSIGNMENT((#509));
#507=PRESENTATION_STYLE_ASSIGNMENT((#510));
#508=PRESENTATION_STYLE_ASSIGNMENT((#511));
#509=SURFACE_STYLE_USAGE(.BOTH.,#512);
#510=SURFACE_STYLE_USAGE(.BOTH.,#513);
#511=SURFACE_STYLE_USAGE(.BOTH.,#514);
#512=SURFACE_SIDE_STYLE('',(#515));
#513=SURFACE_SIDE_STYLE('',(#516));
#514=SURFACE_SIDE_STYLE('',(#517));
#515=SURFACE_STYLE_FILL_AREA(#518);
#516=SURFACE_STYLE_FILL_AREA(#519);
#517=SURFACE_STYLE_FILL_AREA(#520);
#518=FILL_AREA_STYLE('Steel - Satin',(#521));
#519=FILL_AREA_STYLE('LED (Green)',(#522));
#520=FILL_AREA_STYLE('Silver - Polished',(#523));
#521=FILL_AREA_STYLE_COLOUR('Steel - Satin',#524);
#522=FILL_AREA_STYLE_COLOUR('LED (Green)',#525);
#523=FILL_AREA_STYLE_COLOUR('Silver - Polished',#526);
#524=COLOUR_RGB('Steel - Satin',0.627450980392157,0.627450980392157,0.627450980392157);
#525=COLOUR_RGB('LED (Green)',0.266666666666667,0.588235294117647,0.282352941176471);
#526=COLOUR_RGB('Silver - Polished',0.984313725490196,0.980392156862745,
0.96078431372549);
ENDSEC;
END-ISO-10303-21;
