ISO-10303-21;
HEADER;
/* Generated by software containing ST-Developer
 * from STEP Tools, Inc. (www.steptools.com) 
 */

FILE_DESCRIPTION(
/* description */ (''),
/* implementation_level */ '2;1');

FILE_NAME(
/* name */ 'RGB LED.step',
/* time_stamp */ '2026-05-14T13:52:09+05:30',
/* author */ (''),
/* organization */ (''),
/* preprocessor_version */ 'ST-DEVELOPER v20.1',
/* originating_system */ 'Autodesk Translation Framework v15.8.0.0',
/* authorisation */ '');

FILE_SCHEMA (('AUTOMOTIVE_DESIGN { 1 0 10303 214 3 1 1 }'));
ENDSEC;

DATA;
#10=MECHANICAL_DESIGN_GEOMETRIC_PRESENTATION_REPRESENTATION('',(#21,#22,
#23,#24,#25,#26,#27),#1457);
#11=SHAPE_REPRESENTATION_RELATIONSHIP('SRR','None',#1464,#12);
#12=ADVANCED_BREP_SHAPE_REPRESENTATION('',(#28,#29,#30,#31,#32,#33,#34),
#1456);
#13=(
BOUNDED_CURVE()
B_SPLINE_CURVE(5,(#1035,#1036,#1037,#1038,#1039,#1040,#1041,#1042,#1043,
#1044,#1045,#1046,#1047,#1048,#1049,#1050,#1051,#1052,#1053,#1054,#1055,
#1056,#1057,#1058,#1059,#1060,#1061,#1062,#1063,#1064,#1065,#1066,#1067,
#1068,#1069,#1070,#1071,#1072,#1073,#1074,#1075,#1076,#1077,#1078,#1079,
#1080,#1081,#1082,#1083,#1084),.UNSPECIFIED.,.F.,.F.)
B_SPLINE_CURVE_WITH_KNOTS((6,1,1,1,1,1,1,1,1,1,1,1,1,1,1,1,1,1,1,1,1,1,
1,1,1,1,1,1,1,1,1,1,1,1,1,1,1,1,1,1,1,1,1,1,1,6),(0.,0.0222222222222222,
0.0444444444444444,0.0666666666666667,0.0888888888888889,0.111111111111111,
0.133333333333333,0.155555555555556,0.177777777777778,0.2,0.222222222222222,
0.244444444444444,0.266666666666667,0.288888888888889,0.311111111111111,
0.333333333333333,0.355555555555555,0.377777777777778,0.4,0.422222222222222,
0.444444444444444,0.466666666666666,0.488888888888889,0.511111111111111,
0.533333333333333,0.555555555555555,0.577777777777778,0.6,0.622222222222222,
0.644444444444444,0.666666666666667,0.688888888888889,0.711111111111111,
0.733333333333333,0.755555555555556,0.777777777777778,0.8,0.822222222222222,
0.844444444444445,0.866666666666667,0.888888888888889,0.911111111111111,
0.933333333333334,0.955555555555556,0.977777777777778,1.),.UNSPECIFIED.)
CURVE()
GEOMETRIC_REPRESENTATION_ITEM()
RATIONAL_B_SPLINE_CURVE((1.,1.,1.,1.,1.,1.,1.,1.,1.,1.,1.,1.,1.,1.,1.,1.,
1.,1.,1.,1.,1.,1.,1.,1.,1.,1.,1.,1.,1.,1.,1.,1.,1.,1.,1.,1.,1.,1.,1.,1.,
1.,1.,1.,1.,1.,1.,1.,1.,1.,1.))
REPRESENTATION_ITEM('')
);
#14=(
BOUNDED_CURVE()
B_SPLINE_CURVE(5,(#1196,#1197,#1198,#1199,#1200,#1201,#1202,#1203,#1204,
#1205,#1206,#1207,#1208,#1209,#1210,#1211,#1212,#1213,#1214,#1215,#1216,
#1217,#1218,#1219,#1220,#1221,#1222,#1223,#1224,#1225,#1226,#1227,#1228,
#1229,#1230,#1231,#1232,#1233,#1234,#1235,#1236,#1237,#1238,#1239,#1240,
#1241,#1242,#1243,#1244,#1245),.UNSPECIFIED.,.F.,.F.)
B_SPLINE_CURVE_WITH_KNOTS((6,1,1,1,1,1,1,1,1,1,1,1,1,1,1,1,1,1,1,1,1,1,
1,1,1,1,1,1,1,1,1,1,1,1,1,1,1,1,1,1,1,1,1,1,1,6),(-1.,-0.977777777777778,
-0.955555555555556,-0.933333333333334,-0.911111111111111,-0.888888888888889,
-0.866666666666667,-0.844444444444445,-0.822222222222222,-0.8,-0.777777777777778,
-0.755555555555556,-0.733333333333333,-0.711111111111111,-0.688888888888889,
-0.666666666666667,-0.644444444444444,-0.622222222222222,-0.6,-0.577777777777778,
-0.555555555555555,-0.533333333333333,-0.511111111111111,-0.488888888888889,
-0.466666666666666,-0.444444444444444,-0.422222222222222,-0.4,-0.377777777777778,
-0.355555555555555,-0.333333333333333,-0.311111111111111,-0.288888888888889,
-0.266666666666667,-0.244444444444444,-0.222222222222222,-0.2,-0.177777777777778,
-0.155555555555556,-0.133333333333333,-0.111111111111111,-0.0888888888888889,
-0.0666666666666667,-0.0444444444444444,-0.0222222222222222,0.),
 .UNSPECIFIED.)
CURVE()
GEOMETRIC_REPRESENTATION_ITEM()
RATIONAL_B_SPLINE_CURVE((1.,1.,1.,1.,1.,1.,1.,1.,1.,1.,1.,1.,1.,1.,1.,1.,
1.,1.,1.,1.,1.,1.,1.,1.,1.,1.,1.,1.,1.,1.,1.,1.,1.,1.,1.,1.,1.,1.,1.,1.,
1.,1.,1.,1.,1.,1.,1.,1.,1.,1.))
REPRESENTATION_ITEM('')
);
#15=(
BOUNDED_CURVE()
B_SPLINE_CURVE(5,(#1253,#1254,#1255,#1256,#1257,#1258,#1259,#1260,#1261,
#1262,#1263,#1264,#1265,#1266,#1267,#1268,#1269,#1270,#1271,#1272),
 .UNSPECIFIED.,.F.,.F.)
B_SPLINE_CURVE_WITH_KNOTS((6,1,1,1,1,1,1,1,1,1,1,1,1,1,1,6),(-1.,-0.933333333333333,
-0.866666666666667,-0.8,-0.733333333333333,-0.666666666666667,-0.6,-0.533333333333333,
-0.466666666666667,-0.4,-0.333333333333333,-0.266666666666667,-0.2,-0.133333333333333,
-0.0666666666666667,0.),.UNSPECIFIED.)
CURVE()
GEOMETRIC_REPRESENTATION_ITEM()
RATIONAL_B_SPLINE_CURVE((1.,1.,1.,1.,1.,1.,1.,1.,1.,1.,1.,1.,1.,1.,1.,1.,
1.,1.,1.,1.))
REPRESENTATION_ITEM('')
);
#16=(
BOUNDED_CURVE()
B_SPLINE_CURVE(5,(#1274,#1275,#1276,#1277,#1278,#1279,#1280,#1281,#1282,
#1283),.UNSPECIFIED.,.F.,.F.)
B_SPLINE_CURVE_WITH_KNOTS((6,1,1,1,1,6),(0.,0.2,0.4,0.6,0.8,1.),
 .UNSPECIFIED.)
CURVE()
GEOMETRIC_REPRESENTATION_ITEM()
RATIONAL_B_SPLINE_CURVE((1.,1.,1.,1.,1.,1.,1.,1.,1.,1.))
REPRESENTATION_ITEM('')
);
#17=(
BOUNDED_CURVE()
B_SPLINE_CURVE(5,(#1285,#1286,#1287,#1288,#1289,#1290,#1291,#1292,#1293,
#1294,#1295,#1296,#1297,#1298,#1299,#1300,#1301,#1302,#1303,#1304),
 .UNSPECIFIED.,.F.,.F.)
B_SPLINE_CURVE_WITH_KNOTS((6,1,1,1,1,1,1,1,1,1,1,1,1,1,1,6),(0.,0.0666666666666667,
0.133333333333333,0.2,0.266666666666667,0.333333333333333,0.4,0.466666666666667,
0.533333333333333,0.6,0.666666666666667,0.733333333333333,0.8,0.866666666666667,
0.933333333333333,1.),.UNSPECIFIED.)
CURVE()
GEOMETRIC_REPRESENTATION_ITEM()
RATIONAL_B_SPLINE_CURVE((1.,1.,1.,1.,1.,1.,1.,1.,1.,1.,1.,1.,1.,1.,1.,1.,
1.,1.,1.,1.))
REPRESENTATION_ITEM('')
);
#18=(
BOUNDED_CURVE()
B_SPLINE_CURVE(5,(#1312,#1313,#1314,#1315,#1316,#1317,#1318,#1319,#1320,
#1321),.UNSPECIFIED.,.F.,.F.)
B_SPLINE_CURVE_WITH_KNOTS((6,1,1,1,1,6),(-1.,-0.8,-0.6,-0.4,-0.2,0.),
 .UNSPECIFIED.)
CURVE()
GEOMETRIC_REPRESENTATION_ITEM()
RATIONAL_B_SPLINE_CURVE((1.,1.,1.,1.,1.,1.,1.,1.,1.,1.))
REPRESENTATION_ITEM('')
);
#19=(
BOUNDED_CURVE()
B_SPLINE_CURVE(5,(#1364,#1365,#1366,#1367,#1368,#1369,#1370,#1371,#1372,
#1373,#1374,#1375,#1376,#1377,#1378,#1379,#1380,#1381,#1382,#1383),
 .UNSPECIFIED.,.F.,.F.)
B_SPLINE_CURVE_WITH_KNOTS((6,1,1,1,1,1,1,1,1,1,1,1,1,1,1,6),(-1.,-0.933333333333333,
-0.866666666666667,-0.8,-0.733333333333333,-0.666666666666667,-0.6,-0.533333333333333,
-0.466666666666667,-0.4,-0.333333333333333,-0.266666666666667,-0.2,-0.133333333333333,
-0.0666666666666667,0.),.UNSPECIFIED.)
CURVE()
GEOMETRIC_REPRESENTATION_ITEM()
RATIONAL_B_SPLINE_CURVE((1.,1.,1.,1.,1.,1.,1.,1.,1.,1.,1.,1.,1.,1.,1.,1.,
1.,1.,1.,1.))
REPRESENTATION_ITEM('')
);
#20=(
BOUNDED_CURVE()
B_SPLINE_CURVE(5,(#1433,#1434,#1435,#1436,#1437,#1438,#1439,#1440,#1441,
#1442,#1443,#1444,#1445,#1446,#1447,#1448,#1449,#1450,#1451,#1452),
 .UNSPECIFIED.,.F.,.F.)
B_SPLINE_CURVE_WITH_KNOTS((6,1,1,1,1,1,1,1,1,1,1,1,1,1,1,6),(0.,0.0666666666666667,
0.133333333333333,0.2,0.266666666666667,0.333333333333333,0.4,0.466666666666667,
0.533333333333333,0.6,0.666666666666667,0.733333333333333,0.8,0.866666666666667,
0.933333333333333,1.),.UNSPECIFIED.)
CURVE()
GEOMETRIC_REPRESENTATION_ITEM()
RATIONAL_B_SPLINE_CURVE((1.,1.,1.,1.,1.,1.,1.,1.,1.,1.,1.,1.,1.,1.,1.,1.,
1.,1.,1.,1.))
REPRESENTATION_ITEM('')
);
#21=STYLED_ITEM('',(#1474),#28);
#22=STYLED_ITEM('',(#1475),#29);
#23=STYLED_ITEM('',(#1475),#30);
#24=STYLED_ITEM('',(#1475),#31);
#25=STYLED_ITEM('',(#1475),#32);
#26=STYLED_ITEM('',(#1475),#33);
#27=STYLED_ITEM('',(#1475),#34);
#28=MANIFOLD_SOLID_BREP('Body1',#654);
#29=MANIFOLD_SOLID_BREP('Body2',#655);
#30=MANIFOLD_SOLID_BREP('Body3',#656);
#31=MANIFOLD_SOLID_BREP('Body4',#657);
#32=MANIFOLD_SOLID_BREP('Body5',#658);
#33=MANIFOLD_SOLID_BREP('Body6',#659);
#34=MANIFOLD_SOLID_BREP('Body7',#660);
#35=(
BOUNDED_SURFACE()
B_SPLINE_SURFACE(2,2,((#888,#889,#890,#891,#892,#893,#894,#895,#896),(#897,
#898,#899,#900,#901,#902,#903,#904,#905),(#906,#907,#908,#909,#910,#911,
#912,#913,#914)),.UNSPECIFIED.,.F.,.T.,.F.)
B_SPLINE_SURFACE_WITH_KNOTS((3,3),(3,2,2,2,3),(-1.58366624775991,-0.160606756386952),
(-3.14159265358979,-1.5707963267949,0.,1.5707963267949,3.14159265358979),
 .UNSPECIFIED.)
GEOMETRIC_REPRESENTATION_ITEM()
RATIONAL_B_SPLINE_SURFACE(((1.,0.707106781186548,1.,0.707106781186548,1.,
0.707106781186548,1.,0.707106781186548,1.),(0.757363849150458,0.535537113559834,
0.757363849150458,0.535537113559834,0.757363849150458,0.535537113559834,
0.757363849150458,0.535537113559834,0.757363849150458),(1.,0.707106781186548,
1.,0.707106781186548,1.,0.707106781186548,1.,0.707106781186548,1.)))
REPRESENTATION_ITEM('')
SURFACE()
);
#36=(
BOUNDED_SURFACE()
B_SPLINE_SURFACE(5,1,((#1095,#1096),(#1097,#1098),(#1099,#1100),(#1101,
#1102),(#1103,#1104),(#1105,#1106),(#1107,#1108),(#1109,#1110),(#1111,#1112),
(#1113,#1114),(#1115,#1116),(#1117,#1118),(#1119,#1120),(#1121,#1122),(#1123,
#1124),(#1125,#1126),(#1127,#1128),(#1129,#1130),(#1131,#1132),(#1133,#1134),
(#1135,#1136),(#1137,#1138),(#1139,#1140),(#1141,#1142),(#1143,#1144),(#1145,
#1146),(#1147,#1148),(#1149,#1150),(#1151,#1152),(#1153,#1154),(#1155,#1156),
(#1157,#1158),(#1159,#1160),(#1161,#1162),(#1163,#1164),(#1165,#1166),(#1167,
#1168),(#1169,#1170),(#1171,#1172),(#1173,#1174),(#1175,#1176),(#1177,#1178),
(#1179,#1180),(#1181,#1182),(#1183,#1184),(#1185,#1186),(#1187,#1188),(#1189,
#1190),(#1191,#1192),(#1193,#1194)),.UNSPECIFIED.,.F.,.F.,.F.)
B_SPLINE_SURFACE_WITH_KNOTS((6,1,1,1,1,1,1,1,1,1,1,1,1,1,1,1,1,1,1,1,1,
1,1,1,1,1,1,1,1,1,1,1,1,1,1,1,1,1,1,1,1,1,1,1,1,6),(2,2),(-1.,-0.977777777777778,
-0.955555555555556,-0.933333333333334,-0.911111111111111,-0.888888888888889,
-0.866666666666667,-0.844444444444445,-0.822222222222222,-0.8,-0.777777777777778,
-0.755555555555556,-0.733333333333333,-0.711111111111111,-0.688888888888889,
-0.666666666666667,-0.644444444444444,-0.622222222222222,-0.6,-0.577777777777778,
-0.555555555555555,-0.533333333333333,-0.511111111111111,-0.488888888888889,
-0.466666666666666,-0.444444444444444,-0.422222222222222,-0.4,-0.377777777777778,
-0.355555555555555,-0.333333333333333,-0.311111111111111,-0.288888888888889,
-0.266666666666667,-0.244444444444444,-0.222222222222222,-0.2,-0.177777777777778,
-0.155555555555556,-0.133333333333333,-0.111111111111111,-0.0888888888888889,
-0.0666666666666667,-0.0444444444444444,-0.0222222222222222,0.),(-0.028,
0.028),.UNSPECIFIED.)
GEOMETRIC_REPRESENTATION_ITEM()
RATIONAL_B_SPLINE_SURFACE(((1.,1.),(1.,1.),(1.,1.),(1.,1.),(1.,1.),(1.,
1.),(1.,1.),(1.,1.),(1.,1.),(1.,1.),(1.,1.),(1.,1.),(1.,1.),(1.,1.),(1.,
1.),(1.,1.),(1.,1.),(1.,1.),(1.,1.),(1.,1.),(1.,1.),(1.,1.),(1.,1.),(1.,
1.),(1.,1.),(1.,1.),(1.,1.),(1.,1.),(1.,1.),(1.,1.),(1.,1.),(1.,1.),(1.,
1.),(1.,1.),(1.,1.),(1.,1.),(1.,1.),(1.,1.),(1.,1.),(1.,1.),(1.,1.),(1.,
1.),(1.,1.),(1.,1.),(1.,1.),(1.,1.),(1.,1.),(1.,1.),(1.,1.),(1.,1.)))
REPRESENTATION_ITEM('')
SURFACE()
);
#37=(
BOUNDED_SURFACE()
B_SPLINE_SURFACE(5,1,((#1323,#1324),(#1325,#1326),(#1327,#1328),(#1329,
#1330),(#1331,#1332),(#1333,#1334),(#1335,#1336),(#1337,#1338),(#1339,#1340),
(#1341,#1342),(#1343,#1344),(#1345,#1346),(#1347,#1348),(#1349,#1350),(#1351,
#1352),(#1353,#1354),(#1355,#1356),(#1357,#1358),(#1359,#1360),(#1361,#1362)),
 .UNSPECIFIED.,.F.,.F.,.F.)
B_SPLINE_SURFACE_WITH_KNOTS((6,1,1,1,1,1,1,1,1,1,1,1,1,1,1,6),(2,2),(-1.,
-0.933333333333333,-0.866666666666667,-0.8,-0.733333333333333,-0.666666666666667,
-0.6,-0.533333333333333,-0.466666666666667,-0.4,-0.333333333333333,-0.266666666666667,
-0.2,-0.133333333333333,-0.0666666666666667,0.),(-0.028,0.028),
 .UNSPECIFIED.)
GEOMETRIC_REPRESENTATION_ITEM()
RATIONAL_B_SPLINE_SURFACE(((1.,1.),(1.,1.),(1.,1.),(1.,1.),(1.,1.),(1.,
1.),(1.,1.),(1.,1.),(1.,1.),(1.,1.),(1.,1.),(1.,1.),(1.,1.),(1.,1.),(1.,
1.),(1.,1.),(1.,1.),(1.,1.),(1.,1.),(1.,1.)))
REPRESENTATION_ITEM('')
SURFACE()
);
#38=(
BOUNDED_SURFACE()
B_SPLINE_SURFACE(5,1,((#1393,#1394),(#1395,#1396),(#1397,#1398),(#1399,
#1400),(#1401,#1402),(#1403,#1404),(#1405,#1406),(#1407,#1408),(#1409,#1410),
(#1411,#1412),(#1413,#1414),(#1415,#1416),(#1417,#1418),(#1419,#1420),(#1421,
#1422),(#1423,#1424),(#1425,#1426),(#1427,#1428),(#1429,#1430),(#1431,#1432)),
 .UNSPECIFIED.,.F.,.F.,.F.)
B_SPLINE_SURFACE_WITH_KNOTS((6,1,1,1,1,1,1,1,1,1,1,1,1,1,1,6),(2,2),(0.,
0.0666666666666667,0.133333333333333,0.2,0.266666666666667,0.333333333333333,
0.4,0.466666666666667,0.533333333333333,0.6,0.666666666666667,0.733333333333333,
0.8,0.866666666666667,0.933333333333333,1.),(-0.028,0.028),
 .UNSPECIFIED.)
GEOMETRIC_REPRESENTATION_ITEM()
RATIONAL_B_SPLINE_SURFACE(((1.,1.),(1.,1.),(1.,1.),(1.,1.),(1.,1.),(1.,
1.),(1.,1.),(1.,1.),(1.,1.),(1.,1.),(1.,1.),(1.,1.),(1.,1.),(1.,1.),(1.,
1.),(1.,1.),(1.,1.),(1.,1.),(1.,1.),(1.,1.)))
REPRESENTATION_ITEM('')
SURFACE()
);
#39=LINE('',#886,#108);
#40=LINE('',#922,#109);
#41=LINE('',#926,#110);
#42=LINE('',#928,#111);
#43=LINE('',#930,#112);
#44=LINE('',#931,#113);
#45=LINE('',#934,#114);
#46=LINE('',#936,#115);
#47=LINE('',#937,#116);
#48=LINE('',#940,#117);
#49=LINE('',#942,#118);
#50=LINE('',#943,#119);
#51=LINE('',#945,#120);
#52=LINE('',#946,#121);
#53=LINE('',#952,#122);
#54=LINE('',#954,#123);
#55=LINE('',#956,#124);
#56=LINE('',#957,#125);
#57=LINE('',#960,#126);
#58=LINE('',#962,#127);
#59=LINE('',#963,#128);
#60=LINE('',#966,#129);
#61=LINE('',#968,#130);
#62=LINE('',#969,#131);
#63=LINE('',#971,#132);
#64=LINE('',#972,#133);
#65=LINE('',#978,#134);
#66=LINE('',#980,#135);
#67=LINE('',#982,#136);
#68=LINE('',#983,#137);
#69=LINE('',#986,#138);
#70=LINE('',#988,#139);
#71=LINE('',#989,#140);
#72=LINE('',#992,#141);
#73=LINE('',#994,#142);
#74=LINE('',#995,#143);
#75=LINE('',#997,#144);
#76=LINE('',#998,#145);
#77=LINE('',#1004,#146);
#78=LINE('',#1006,#147);
#79=LINE('',#1008,#148);
#80=LINE('',#1009,#149);
#81=LINE('',#1012,#150);
#82=LINE('',#1014,#151);
#83=LINE('',#1015,#152);
#84=LINE('',#1018,#153);
#85=LINE('',#1020,#154);
#86=LINE('',#1021,#155);
#87=LINE('',#1023,#156);
#88=LINE('',#1024,#157);
#89=LINE('',#1030,#158);
#90=LINE('',#1032,#159);
#91=LINE('',#1034,#160);
#92=LINE('',#1087,#161);
#93=LINE('',#1089,#162);
#94=LINE('',#1090,#163);
#95=LINE('',#1093,#164);
#96=LINE('',#1094,#165);
#97=LINE('',#1246,#166);
#98=LINE('',#1248,#167);
#99=LINE('',#1306,#168);
#100=LINE('',#1307,#169);
#101=LINE('',#1310,#170);
#102=LINE('',#1322,#171);
#103=LINE('',#1384,#172);
#104=LINE('',#1387,#173);
#105=LINE('',#1388,#174);
#106=LINE('',#1391,#175);
#107=LINE('',#1392,#176);
#108=VECTOR('',#730,2.8);
#109=VECTOR('',#741,2.5);
#110=VECTOR('',#744,10.);
#111=VECTOR('',#745,10.);
#112=VECTOR('',#746,10.);
#113=VECTOR('',#747,10.);
#114=VECTOR('',#750,10.);
#115=VECTOR('',#751,10.);
#116=VECTOR('',#752,10.);
#117=VECTOR('',#755,10.);
#118=VECTOR('',#756,10.);
#119=VECTOR('',#757,10.);
#120=VECTOR('',#760,10.);
#121=VECTOR('',#761,10.);
#122=VECTOR('',#768,10.);
#123=VECTOR('',#769,10.);
#124=VECTOR('',#770,10.);
#125=VECTOR('',#771,10.);
#126=VECTOR('',#774,10.);
#127=VECTOR('',#775,10.);
#128=VECTOR('',#776,10.);
#129=VECTOR('',#779,10.);
#130=VECTOR('',#780,10.);
#131=VECTOR('',#781,10.);
#132=VECTOR('',#784,10.);
#133=VECTOR('',#785,10.);
#134=VECTOR('',#792,10.);
#135=VECTOR('',#793,10.);
#136=VECTOR('',#794,10.);
#137=VECTOR('',#795,10.);
#138=VECTOR('',#798,10.);
#139=VECTOR('',#799,10.);
#140=VECTOR('',#800,10.);
#141=VECTOR('',#803,10.);
#142=VECTOR('',#804,10.);
#143=VECTOR('',#805,10.);
#144=VECTOR('',#808,10.);
#145=VECTOR('',#809,10.);
#146=VECTOR('',#816,10.);
#147=VECTOR('',#817,10.);
#148=VECTOR('',#818,10.);
#149=VECTOR('',#819,10.);
#150=VECTOR('',#822,10.);
#151=VECTOR('',#823,10.);
#152=VECTOR('',#824,10.);
#153=VECTOR('',#827,10.);
#154=VECTOR('',#828,10.);
#155=VECTOR('',#829,10.);
#156=VECTOR('',#832,10.);
#157=VECTOR('',#833,10.);
#158=VECTOR('',#840,10.);
#159=VECTOR('',#841,10.);
#160=VECTOR('',#842,10.);
#161=VECTOR('',#845,10.);
#162=VECTOR('',#846,10.);
#163=VECTOR('',#847,10.);
#164=VECTOR('',#850,10.);
#165=VECTOR('',#851,10.);
#166=VECTOR('',#852,10.);
#167=VECTOR('',#855,10.);
#168=VECTOR('',#860,10.);
#169=VECTOR('',#861,10.);
#170=VECTOR('',#864,10.);
#171=VECTOR('',#865,10.);
#172=VECTOR('',#866,10.);
#173=VECTOR('',#869,10.);
#174=VECTOR('',#870,10.);
#175=VECTOR('',#873,10.);
#176=VECTOR('',#874,10.);
#177=CYLINDRICAL_SURFACE('',#677,2.8);
#178=CYLINDRICAL_SURFACE('',#683,2.5);
#179=FACE_BOUND('',#223,.T.);
#180=FACE_OUTER_BOUND('',#222,.T.);
#181=FACE_OUTER_BOUND('',#224,.T.);
#182=FACE_OUTER_BOUND('',#225,.T.);
#183=FACE_OUTER_BOUND('',#226,.T.);
#184=FACE_OUTER_BOUND('',#227,.T.);
#185=FACE_OUTER_BOUND('',#228,.T.);
#186=FACE_OUTER_BOUND('',#229,.T.);
#187=FACE_OUTER_BOUND('',#230,.T.);
#188=FACE_OUTER_BOUND('',#231,.T.);
#189=FACE_OUTER_BOUND('',#232,.T.);
#190=FACE_OUTER_BOUND('',#233,.T.);
#191=FACE_OUTER_BOUND('',#234,.T.);
#192=FACE_OUTER_BOUND('',#235,.T.);
#193=FACE_OUTER_BOUND('',#236,.T.);
#194=FACE_OUTER_BOUND('',#237,.T.);
#195=FACE_OUTER_BOUND('',#238,.T.);
#196=FACE_OUTER_BOUND('',#239,.T.);
#197=FACE_OUTER_BOUND('',#240,.T.);
#198=FACE_OUTER_BOUND('',#241,.T.);
#199=FACE_OUTER_BOUND('',#242,.T.);
#200=FACE_OUTER_BOUND('',#243,.T.);
#201=FACE_OUTER_BOUND('',#244,.T.);
#202=FACE_OUTER_BOUND('',#245,.T.);
#203=FACE_OUTER_BOUND('',#246,.T.);
#204=FACE_OUTER_BOUND('',#247,.T.);
#205=FACE_OUTER_BOUND('',#248,.T.);
#206=FACE_OUTER_BOUND('',#249,.T.);
#207=FACE_OUTER_BOUND('',#250,.T.);
#208=FACE_OUTER_BOUND('',#251,.T.);
#209=FACE_OUTER_BOUND('',#252,.T.);
#210=FACE_OUTER_BOUND('',#253,.T.);
#211=FACE_OUTER_BOUND('',#254,.T.);
#212=FACE_OUTER_BOUND('',#255,.T.);
#213=FACE_OUTER_BOUND('',#256,.T.);
#214=FACE_OUTER_BOUND('',#257,.T.);
#215=FACE_OUTER_BOUND('',#258,.T.);
#216=FACE_OUTER_BOUND('',#259,.T.);
#217=FACE_OUTER_BOUND('',#260,.T.);
#218=FACE_OUTER_BOUND('',#261,.T.);
#219=FACE_OUTER_BOUND('',#262,.T.);
#220=FACE_OUTER_BOUND('',#263,.T.);
#221=FACE_OUTER_BOUND('',#264,.T.);
#222=EDGE_LOOP('',(#410));
#223=EDGE_LOOP('',(#411));
#224=EDGE_LOOP('',(#412,#413,#414,#415));
#225=EDGE_LOOP('',(#416));
#226=EDGE_LOOP('',(#417,#418,#419,#420));
#227=EDGE_LOOP('',(#421,#422,#423,#424,#425));
#228=EDGE_LOOP('',(#426,#427,#428,#429));
#229=EDGE_LOOP('',(#430,#431,#432,#433));
#230=EDGE_LOOP('',(#434,#435,#436,#437));
#231=EDGE_LOOP('',(#438,#439,#440,#441));
#232=EDGE_LOOP('',(#442,#443,#444,#445));
#233=EDGE_LOOP('',(#446,#447,#448,#449));
#234=EDGE_LOOP('',(#450,#451,#452,#453));
#235=EDGE_LOOP('',(#454,#455,#456,#457));
#236=EDGE_LOOP('',(#458,#459,#460,#461));
#237=EDGE_LOOP('',(#462,#463,#464,#465));
#238=EDGE_LOOP('',(#466,#467,#468,#469));
#239=EDGE_LOOP('',(#470,#471,#472,#473));
#240=EDGE_LOOP('',(#474,#475,#476,#477));
#241=EDGE_LOOP('',(#478,#479,#480,#481));
#242=EDGE_LOOP('',(#482,#483,#484,#485));
#243=EDGE_LOOP('',(#486,#487,#488,#489));
#244=EDGE_LOOP('',(#490,#491,#492,#493));
#245=EDGE_LOOP('',(#494,#495,#496,#497));
#246=EDGE_LOOP('',(#498,#499,#500,#501));
#247=EDGE_LOOP('',(#502,#503,#504,#505));
#248=EDGE_LOOP('',(#506,#507,#508,#509));
#249=EDGE_LOOP('',(#510,#511,#512,#513));
#250=EDGE_LOOP('',(#514,#515,#516,#517));
#251=EDGE_LOOP('',(#518,#519,#520,#521));
#252=EDGE_LOOP('',(#522,#523,#524,#525));
#253=EDGE_LOOP('',(#526,#527,#528,#529));
#254=EDGE_LOOP('',(#530,#531,#532,#533));
#255=EDGE_LOOP('',(#534,#535,#536,#537));
#256=EDGE_LOOP('',(#538,#539,#540,#541));
#257=EDGE_LOOP('',(#542,#543,#544,#545));
#258=EDGE_LOOP('',(#546,#547,#548,#549,#550));
#259=EDGE_LOOP('',(#551,#552,#553,#554));
#260=EDGE_LOOP('',(#555,#556,#557,#558));
#261=EDGE_LOOP('',(#559,#560,#561,#562));
#262=EDGE_LOOP('',(#563,#564,#565,#566));
#263=EDGE_LOOP('',(#567,#568,#569,#570));
#264=EDGE_LOOP('',(#571,#572,#573,#574,#575));
#265=CIRCLE('',#675,2.8);
#266=CIRCLE('',#676,2.5);
#267=CIRCLE('',#678,2.8);
#268=CIRCLE('',#680,2.5);
#269=CIRCLE('',#681,2.5);
#270=CIRCLE('',#682,2.5);
#271=VERTEX_POINT('',#879);
#272=VERTEX_POINT('',#881);
#273=VERTEX_POINT('',#884);
#274=VERTEX_POINT('',#915);
#275=VERTEX_POINT('',#916);
#276=VERTEX_POINT('',#919);
#277=VERTEX_POINT('',#924);
#278=VERTEX_POINT('',#925);
#279=VERTEX_POINT('',#927);
#280=VERTEX_POINT('',#929);
#281=VERTEX_POINT('',#933);
#282=VERTEX_POINT('',#935);
#283=VERTEX_POINT('',#939);
#284=VERTEX_POINT('',#941);
#285=VERTEX_POINT('',#950);
#286=VERTEX_POINT('',#951);
#287=VERTEX_POINT('',#953);
#288=VERTEX_POINT('',#955);
#289=VERTEX_POINT('',#959);
#290=VERTEX_POINT('',#961);
#291=VERTEX_POINT('',#965);
#292=VERTEX_POINT('',#967);
#293=VERTEX_POINT('',#976);
#294=VERTEX_POINT('',#977);
#295=VERTEX_POINT('',#979);
#296=VERTEX_POINT('',#981);
#297=VERTEX_POINT('',#985);
#298=VERTEX_POINT('',#987);
#299=VERTEX_POINT('',#991);
#300=VERTEX_POINT('',#993);
#301=VERTEX_POINT('',#1002);
#302=VERTEX_POINT('',#1003);
#303=VERTEX_POINT('',#1005);
#304=VERTEX_POINT('',#1007);
#305=VERTEX_POINT('',#1011);
#306=VERTEX_POINT('',#1013);
#307=VERTEX_POINT('',#1017);
#308=VERTEX_POINT('',#1019);
#309=VERTEX_POINT('',#1028);
#310=VERTEX_POINT('',#1029);
#311=VERTEX_POINT('',#1031);
#312=VERTEX_POINT('',#1033);
#313=VERTEX_POINT('',#1086);
#314=VERTEX_POINT('',#1088);
#315=VERTEX_POINT('',#1092);
#316=VERTEX_POINT('',#1195);
#317=VERTEX_POINT('',#1251);
#318=VERTEX_POINT('',#1252);
#319=VERTEX_POINT('',#1273);
#320=VERTEX_POINT('',#1284);
#321=VERTEX_POINT('',#1305);
#322=VERTEX_POINT('',#1309);
#323=VERTEX_POINT('',#1311);
#324=VERTEX_POINT('',#1363);
#325=VERTEX_POINT('',#1386);
#326=VERTEX_POINT('',#1390);
#327=EDGE_CURVE('',#271,#271,#265,.T.);
#328=EDGE_CURVE('',#272,#272,#266,.T.);
#329=EDGE_CURVE('',#273,#273,#267,.T.);
#330=EDGE_CURVE('',#273,#271,#39,.T.);
#331=EDGE_CURVE('',#274,#275,#268,.T.);
#332=EDGE_CURVE('',#275,#274,#269,.T.);
#333=EDGE_CURVE('',#275,#276,#270,.T.);
#334=EDGE_CURVE('',#272,#274,#40,.T.);
#335=EDGE_CURVE('',#277,#278,#41,.T.);
#336=EDGE_CURVE('',#278,#279,#42,.T.);
#337=EDGE_CURVE('',#280,#279,#43,.T.);
#338=EDGE_CURVE('',#277,#280,#44,.T.);
#339=EDGE_CURVE('',#281,#277,#45,.T.);
#340=EDGE_CURVE('',#282,#280,#46,.T.);
#341=EDGE_CURVE('',#281,#282,#47,.T.);
#342=EDGE_CURVE('',#283,#281,#48,.T.);
#343=EDGE_CURVE('',#284,#282,#49,.T.);
#344=EDGE_CURVE('',#283,#284,#50,.T.);
#345=EDGE_CURVE('',#278,#283,#51,.T.);
#346=EDGE_CURVE('',#279,#284,#52,.T.);
#347=EDGE_CURVE('',#285,#286,#53,.T.);
#348=EDGE_CURVE('',#285,#287,#54,.T.);
#349=EDGE_CURVE('',#288,#287,#55,.T.);
#350=EDGE_CURVE('',#286,#288,#56,.T.);
#351=EDGE_CURVE('',#286,#289,#57,.T.);
#352=EDGE_CURVE('',#290,#288,#58,.T.);
#353=EDGE_CURVE('',#289,#290,#59,.T.);
#354=EDGE_CURVE('',#289,#291,#60,.T.);
#355=EDGE_CURVE('',#292,#290,#61,.T.);
#356=EDGE_CURVE('',#291,#292,#62,.T.);
#357=EDGE_CURVE('',#291,#285,#63,.T.);
#358=EDGE_CURVE('',#287,#292,#64,.T.);
#359=EDGE_CURVE('',#293,#294,#65,.T.);
#360=EDGE_CURVE('',#294,#295,#66,.T.);
#361=EDGE_CURVE('',#296,#295,#67,.T.);
#362=EDGE_CURVE('',#293,#296,#68,.T.);
#363=EDGE_CURVE('',#297,#293,#69,.T.);
#364=EDGE_CURVE('',#298,#296,#70,.T.);
#365=EDGE_CURVE('',#297,#298,#71,.T.);
#366=EDGE_CURVE('',#299,#297,#72,.T.);
#367=EDGE_CURVE('',#300,#298,#73,.T.);
#368=EDGE_CURVE('',#299,#300,#74,.T.);
#369=EDGE_CURVE('',#294,#299,#75,.T.);
#370=EDGE_CURVE('',#295,#300,#76,.T.);
#371=EDGE_CURVE('',#301,#302,#77,.T.);
#372=EDGE_CURVE('',#301,#303,#78,.T.);
#373=EDGE_CURVE('',#304,#303,#79,.T.);
#374=EDGE_CURVE('',#302,#304,#80,.T.);
#375=EDGE_CURVE('',#302,#305,#81,.T.);
#376=EDGE_CURVE('',#306,#304,#82,.T.);
#377=EDGE_CURVE('',#305,#306,#83,.T.);
#378=EDGE_CURVE('',#305,#307,#84,.T.);
#379=EDGE_CURVE('',#308,#306,#85,.T.);
#380=EDGE_CURVE('',#307,#308,#86,.T.);
#381=EDGE_CURVE('',#307,#301,#87,.T.);
#382=EDGE_CURVE('',#303,#308,#88,.T.);
#383=EDGE_CURVE('',#309,#310,#89,.T.);
#384=EDGE_CURVE('',#310,#311,#90,.T.);
#385=EDGE_CURVE('',#311,#312,#91,.T.);
#386=EDGE_CURVE('',#312,#309,#13,.T.);
#387=EDGE_CURVE('',#313,#310,#92,.T.);
#388=EDGE_CURVE('',#314,#313,#93,.T.);
#389=EDGE_CURVE('',#311,#314,#94,.T.);
#390=EDGE_CURVE('',#315,#314,#95,.T.);
#391=EDGE_CURVE('',#312,#315,#96,.T.);
#392=EDGE_CURVE('',#316,#315,#14,.T.);
#393=EDGE_CURVE('',#309,#316,#97,.T.);
#394=EDGE_CURVE('',#313,#316,#98,.T.);
#395=EDGE_CURVE('',#317,#318,#15,.T.);
#396=EDGE_CURVE('',#318,#319,#16,.T.);
#397=EDGE_CURVE('',#319,#320,#17,.T.);
#398=EDGE_CURVE('',#320,#321,#99,.T.);
#399=EDGE_CURVE('',#321,#317,#100,.T.);
#400=EDGE_CURVE('',#322,#318,#101,.T.);
#401=EDGE_CURVE('',#323,#322,#18,.T.);
#402=EDGE_CURVE('',#319,#323,#102,.T.);
#403=EDGE_CURVE('',#324,#323,#19,.T.);
#404=EDGE_CURVE('',#320,#324,#103,.T.);
#405=EDGE_CURVE('',#325,#324,#104,.T.);
#406=EDGE_CURVE('',#321,#325,#105,.T.);
#407=EDGE_CURVE('',#326,#325,#106,.T.);
#408=EDGE_CURVE('',#317,#326,#107,.T.);
#409=EDGE_CURVE('',#322,#326,#20,.T.);
#410=ORIENTED_EDGE('',*,*,#327,.F.);
#411=ORIENTED_EDGE('',*,*,#328,.T.);
#412=ORIENTED_EDGE('',*,*,#329,.F.);
#413=ORIENTED_EDGE('',*,*,#330,.T.);
#414=ORIENTED_EDGE('',*,*,#327,.T.);
#415=ORIENTED_EDGE('',*,*,#330,.F.);
#416=ORIENTED_EDGE('',*,*,#329,.T.);
#417=ORIENTED_EDGE('',*,*,#331,.F.);
#418=ORIENTED_EDGE('',*,*,#332,.F.);
#419=ORIENTED_EDGE('',*,*,#333,.T.);
#420=ORIENTED_EDGE('',*,*,#333,.F.);
#421=ORIENTED_EDGE('',*,*,#328,.F.);
#422=ORIENTED_EDGE('',*,*,#334,.T.);
#423=ORIENTED_EDGE('',*,*,#331,.T.);
#424=ORIENTED_EDGE('',*,*,#332,.T.);
#425=ORIENTED_EDGE('',*,*,#334,.F.);
#426=ORIENTED_EDGE('',*,*,#335,.T.);
#427=ORIENTED_EDGE('',*,*,#336,.T.);
#428=ORIENTED_EDGE('',*,*,#337,.F.);
#429=ORIENTED_EDGE('',*,*,#338,.F.);
#430=ORIENTED_EDGE('',*,*,#339,.T.);
#431=ORIENTED_EDGE('',*,*,#338,.T.);
#432=ORIENTED_EDGE('',*,*,#340,.F.);
#433=ORIENTED_EDGE('',*,*,#341,.F.);
#434=ORIENTED_EDGE('',*,*,#342,.T.);
#435=ORIENTED_EDGE('',*,*,#341,.T.);
#436=ORIENTED_EDGE('',*,*,#343,.F.);
#437=ORIENTED_EDGE('',*,*,#344,.F.);
#438=ORIENTED_EDGE('',*,*,#345,.T.);
#439=ORIENTED_EDGE('',*,*,#344,.T.);
#440=ORIENTED_EDGE('',*,*,#346,.F.);
#441=ORIENTED_EDGE('',*,*,#336,.F.);
#442=ORIENTED_EDGE('',*,*,#346,.T.);
#443=ORIENTED_EDGE('',*,*,#343,.T.);
#444=ORIENTED_EDGE('',*,*,#340,.T.);
#445=ORIENTED_EDGE('',*,*,#337,.T.);
#446=ORIENTED_EDGE('',*,*,#345,.F.);
#447=ORIENTED_EDGE('',*,*,#335,.F.);
#448=ORIENTED_EDGE('',*,*,#339,.F.);
#449=ORIENTED_EDGE('',*,*,#342,.F.);
#450=ORIENTED_EDGE('',*,*,#347,.F.);
#451=ORIENTED_EDGE('',*,*,#348,.T.);
#452=ORIENTED_EDGE('',*,*,#349,.F.);
#453=ORIENTED_EDGE('',*,*,#350,.F.);
#454=ORIENTED_EDGE('',*,*,#351,.F.);
#455=ORIENTED_EDGE('',*,*,#350,.T.);
#456=ORIENTED_EDGE('',*,*,#352,.F.);
#457=ORIENTED_EDGE('',*,*,#353,.F.);
#458=ORIENTED_EDGE('',*,*,#354,.F.);
#459=ORIENTED_EDGE('',*,*,#353,.T.);
#460=ORIENTED_EDGE('',*,*,#355,.F.);
#461=ORIENTED_EDGE('',*,*,#356,.F.);
#462=ORIENTED_EDGE('',*,*,#357,.F.);
#463=ORIENTED_EDGE('',*,*,#356,.T.);
#464=ORIENTED_EDGE('',*,*,#358,.F.);
#465=ORIENTED_EDGE('',*,*,#348,.F.);
#466=ORIENTED_EDGE('',*,*,#358,.T.);
#467=ORIENTED_EDGE('',*,*,#355,.T.);
#468=ORIENTED_EDGE('',*,*,#352,.T.);
#469=ORIENTED_EDGE('',*,*,#349,.T.);
#470=ORIENTED_EDGE('',*,*,#357,.T.);
#471=ORIENTED_EDGE('',*,*,#347,.T.);
#472=ORIENTED_EDGE('',*,*,#351,.T.);
#473=ORIENTED_EDGE('',*,*,#354,.T.);
#474=ORIENTED_EDGE('',*,*,#359,.T.);
#475=ORIENTED_EDGE('',*,*,#360,.T.);
#476=ORIENTED_EDGE('',*,*,#361,.F.);
#477=ORIENTED_EDGE('',*,*,#362,.F.);
#478=ORIENTED_EDGE('',*,*,#363,.T.);
#479=ORIENTED_EDGE('',*,*,#362,.T.);
#480=ORIENTED_EDGE('',*,*,#364,.F.);
#481=ORIENTED_EDGE('',*,*,#365,.F.);
#482=ORIENTED_EDGE('',*,*,#366,.T.);
#483=ORIENTED_EDGE('',*,*,#365,.T.);
#484=ORIENTED_EDGE('',*,*,#367,.F.);
#485=ORIENTED_EDGE('',*,*,#368,.F.);
#486=ORIENTED_EDGE('',*,*,#369,.T.);
#487=ORIENTED_EDGE('',*,*,#368,.T.);
#488=ORIENTED_EDGE('',*,*,#370,.F.);
#489=ORIENTED_EDGE('',*,*,#360,.F.);
#490=ORIENTED_EDGE('',*,*,#370,.T.);
#491=ORIENTED_EDGE('',*,*,#367,.T.);
#492=ORIENTED_EDGE('',*,*,#364,.T.);
#493=ORIENTED_EDGE('',*,*,#361,.T.);
#494=ORIENTED_EDGE('',*,*,#369,.F.);
#495=ORIENTED_EDGE('',*,*,#359,.F.);
#496=ORIENTED_EDGE('',*,*,#363,.F.);
#497=ORIENTED_EDGE('',*,*,#366,.F.);
#498=ORIENTED_EDGE('',*,*,#371,.F.);
#499=ORIENTED_EDGE('',*,*,#372,.T.);
#500=ORIENTED_EDGE('',*,*,#373,.F.);
#501=ORIENTED_EDGE('',*,*,#374,.F.);
#502=ORIENTED_EDGE('',*,*,#375,.F.);
#503=ORIENTED_EDGE('',*,*,#374,.T.);
#504=ORIENTED_EDGE('',*,*,#376,.F.);
#505=ORIENTED_EDGE('',*,*,#377,.F.);
#506=ORIENTED_EDGE('',*,*,#378,.F.);
#507=ORIENTED_EDGE('',*,*,#377,.T.);
#508=ORIENTED_EDGE('',*,*,#379,.F.);
#509=ORIENTED_EDGE('',*,*,#380,.F.);
#510=ORIENTED_EDGE('',*,*,#381,.F.);
#511=ORIENTED_EDGE('',*,*,#380,.T.);
#512=ORIENTED_EDGE('',*,*,#382,.F.);
#513=ORIENTED_EDGE('',*,*,#372,.F.);
#514=ORIENTED_EDGE('',*,*,#382,.T.);
#515=ORIENTED_EDGE('',*,*,#379,.T.);
#516=ORIENTED_EDGE('',*,*,#376,.T.);
#517=ORIENTED_EDGE('',*,*,#373,.T.);
#518=ORIENTED_EDGE('',*,*,#381,.T.);
#519=ORIENTED_EDGE('',*,*,#371,.T.);
#520=ORIENTED_EDGE('',*,*,#375,.T.);
#521=ORIENTED_EDGE('',*,*,#378,.T.);
#522=ORIENTED_EDGE('',*,*,#383,.T.);
#523=ORIENTED_EDGE('',*,*,#384,.T.);
#524=ORIENTED_EDGE('',*,*,#385,.T.);
#525=ORIENTED_EDGE('',*,*,#386,.T.);
#526=ORIENTED_EDGE('',*,*,#387,.F.);
#527=ORIENTED_EDGE('',*,*,#388,.F.);
#528=ORIENTED_EDGE('',*,*,#389,.F.);
#529=ORIENTED_EDGE('',*,*,#384,.F.);
#530=ORIENTED_EDGE('',*,*,#389,.T.);
#531=ORIENTED_EDGE('',*,*,#390,.F.);
#532=ORIENTED_EDGE('',*,*,#391,.F.);
#533=ORIENTED_EDGE('',*,*,#385,.F.);
#534=ORIENTED_EDGE('',*,*,#391,.T.);
#535=ORIENTED_EDGE('',*,*,#392,.F.);
#536=ORIENTED_EDGE('',*,*,#393,.F.);
#537=ORIENTED_EDGE('',*,*,#386,.F.);
#538=ORIENTED_EDGE('',*,*,#393,.T.);
#539=ORIENTED_EDGE('',*,*,#394,.F.);
#540=ORIENTED_EDGE('',*,*,#387,.T.);
#541=ORIENTED_EDGE('',*,*,#383,.F.);
#542=ORIENTED_EDGE('',*,*,#394,.T.);
#543=ORIENTED_EDGE('',*,*,#392,.T.);
#544=ORIENTED_EDGE('',*,*,#390,.T.);
#545=ORIENTED_EDGE('',*,*,#388,.T.);
#546=ORIENTED_EDGE('',*,*,#395,.T.);
#547=ORIENTED_EDGE('',*,*,#396,.T.);
#548=ORIENTED_EDGE('',*,*,#397,.T.);
#549=ORIENTED_EDGE('',*,*,#398,.T.);
#550=ORIENTED_EDGE('',*,*,#399,.T.);
#551=ORIENTED_EDGE('',*,*,#400,.F.);
#552=ORIENTED_EDGE('',*,*,#401,.F.);
#553=ORIENTED_EDGE('',*,*,#402,.F.);
#554=ORIENTED_EDGE('',*,*,#396,.F.);
#555=ORIENTED_EDGE('',*,*,#402,.T.);
#556=ORIENTED_EDGE('',*,*,#403,.F.);
#557=ORIENTED_EDGE('',*,*,#404,.F.);
#558=ORIENTED_EDGE('',*,*,#397,.F.);
#559=ORIENTED_EDGE('',*,*,#404,.T.);
#560=ORIENTED_EDGE('',*,*,#405,.F.);
#561=ORIENTED_EDGE('',*,*,#406,.F.);
#562=ORIENTED_EDGE('',*,*,#398,.F.);
#563=ORIENTED_EDGE('',*,*,#406,.T.);
#564=ORIENTED_EDGE('',*,*,#407,.F.);
#565=ORIENTED_EDGE('',*,*,#408,.F.);
#566=ORIENTED_EDGE('',*,*,#399,.F.);
#567=ORIENTED_EDGE('',*,*,#408,.T.);
#568=ORIENTED_EDGE('',*,*,#409,.F.);
#569=ORIENTED_EDGE('',*,*,#400,.T.);
#570=ORIENTED_EDGE('',*,*,#395,.F.);
#571=ORIENTED_EDGE('',*,*,#409,.T.);
#572=ORIENTED_EDGE('',*,*,#407,.T.);
#573=ORIENTED_EDGE('',*,*,#405,.T.);
#574=ORIENTED_EDGE('',*,*,#403,.T.);
#575=ORIENTED_EDGE('',*,*,#401,.T.);
#576=PLANE('',#674);
#577=PLANE('',#679);
#578=PLANE('',#684);
#579=PLANE('',#685);
#580=PLANE('',#686);
#581=PLANE('',#687);
#582=PLANE('',#688);
#583=PLANE('',#689);
#584=PLANE('',#690);
#585=PLANE('',#691);
#586=PLANE('',#692);
#587=PLANE('',#693);
#588=PLANE('',#694);
#589=PLANE('',#695);
#590=PLANE('',#696);
#591=PLANE('',#697);
#592=PLANE('',#698);
#593=PLANE('',#699);
#594=PLANE('',#700);
#595=PLANE('',#701);
#596=PLANE('',#702);
#597=PLANE('',#703);
#598=PLANE('',#704);
#599=PLANE('',#705);
#600=PLANE('',#706);
#601=PLANE('',#707);
#602=PLANE('',#708);
#603=PLANE('',#709);
#604=PLANE('',#710);
#605=PLANE('',#711);
#606=PLANE('',#712);
#607=PLANE('',#713);
#608=PLANE('',#714);
#609=PLANE('',#715);
#610=PLANE('',#716);
#611=PLANE('',#717);
#612=ADVANCED_FACE('',(#180,#179),#576,.T.);
#613=ADVANCED_FACE('',(#181),#177,.T.);
#614=ADVANCED_FACE('',(#182),#577,.T.);
#615=ADVANCED_FACE('',(#183),#35,.F.);
#616=ADVANCED_FACE('',(#184),#178,.T.);
#617=ADVANCED_FACE('',(#185),#578,.T.);
#618=ADVANCED_FACE('',(#186),#579,.T.);
#619=ADVANCED_FACE('',(#187),#580,.T.);
#620=ADVANCED_FACE('',(#188),#581,.T.);
#621=ADVANCED_FACE('',(#189),#582,.T.);
#622=ADVANCED_FACE('',(#190),#583,.F.);
#623=ADVANCED_FACE('',(#191),#584,.T.);
#624=ADVANCED_FACE('',(#192),#585,.T.);
#625=ADVANCED_FACE('',(#193),#586,.T.);
#626=ADVANCED_FACE('',(#194),#587,.T.);
#627=ADVANCED_FACE('',(#195),#588,.T.);
#628=ADVANCED_FACE('',(#196),#589,.F.);
#629=ADVANCED_FACE('',(#197),#590,.T.);
#630=ADVANCED_FACE('',(#198),#591,.T.);
#631=ADVANCED_FACE('',(#199),#592,.T.);
#632=ADVANCED_FACE('',(#200),#593,.T.);
#633=ADVANCED_FACE('',(#201),#594,.T.);
#634=ADVANCED_FACE('',(#202),#595,.F.);
#635=ADVANCED_FACE('',(#203),#596,.T.);
#636=ADVANCED_FACE('',(#204),#597,.T.);
#637=ADVANCED_FACE('',(#205),#598,.T.);
#638=ADVANCED_FACE('',(#206),#599,.T.);
#639=ADVANCED_FACE('',(#207),#600,.T.);
#640=ADVANCED_FACE('',(#208),#601,.F.);
#641=ADVANCED_FACE('',(#209),#602,.F.);
#642=ADVANCED_FACE('',(#210),#603,.T.);
#643=ADVANCED_FACE('',(#211),#604,.T.);
#644=ADVANCED_FACE('',(#212),#36,.T.);
#645=ADVANCED_FACE('',(#213),#605,.T.);
#646=ADVANCED_FACE('',(#214),#606,.T.);
#647=ADVANCED_FACE('',(#215),#607,.F.);
#648=ADVANCED_FACE('',(#216),#608,.T.);
#649=ADVANCED_FACE('',(#217),#37,.T.);
#650=ADVANCED_FACE('',(#218),#609,.T.);
#651=ADVANCED_FACE('',(#219),#610,.T.);
#652=ADVANCED_FACE('',(#220),#38,.T.);
#653=ADVANCED_FACE('',(#221),#611,.T.);
#654=CLOSED_SHELL('',(#612,#613,#614,#615,#616));
#655=CLOSED_SHELL('',(#617,#618,#619,#620,#621,#622));
#656=CLOSED_SHELL('',(#623,#624,#625,#626,#627,#628));
#657=CLOSED_SHELL('',(#629,#630,#631,#632,#633,#634));
#658=CLOSED_SHELL('',(#635,#636,#637,#638,#639,#640));
#659=CLOSED_SHELL('',(#641,#642,#643,#644,#645,#646));
#660=CLOSED_SHELL('',(#647,#648,#649,#650,#651,#652,#653));
#661=DERIVED_UNIT_ELEMENT(#663,1.);
#662=DERIVED_UNIT_ELEMENT(#1459,-3.);
#663=(
MASS_UNIT()
NAMED_UNIT(*)
SI_UNIT(.KILO.,.GRAM.)
);
#664=DERIVED_UNIT((#661,#662));
#665=MEASURE_REPRESENTATION_ITEM('density measure',
POSITIVE_RATIO_MEASURE(7850.),#664);
#666=PROPERTY_DEFINITION_REPRESENTATION(#671,#668);
#667=PROPERTY_DEFINITION_REPRESENTATION(#672,#669);
#668=REPRESENTATION('material name',(#670),#1456);
#669=REPRESENTATION('density',(#665),#1456);
#670=DESCRIPTIVE_REPRESENTATION_ITEM('Steel','Steel');
#671=PROPERTY_DEFINITION('material property','material name',#1466);
#672=PROPERTY_DEFINITION('material property','density of part',#1466);
#673=AXIS2_PLACEMENT_3D('',#877,#718,#719);
#674=AXIS2_PLACEMENT_3D('',#878,#720,#721);
#675=AXIS2_PLACEMENT_3D('',#880,#722,#723);
#676=AXIS2_PLACEMENT_3D('',#882,#724,#725);
#677=AXIS2_PLACEMENT_3D('',#883,#726,#727);
#678=AXIS2_PLACEMENT_3D('',#885,#728,#729);
#679=AXIS2_PLACEMENT_3D('',#887,#731,#732);
#680=AXIS2_PLACEMENT_3D('',#917,#733,#734);
#681=AXIS2_PLACEMENT_3D('',#918,#735,#736);
#682=AXIS2_PLACEMENT_3D('',#920,#737,#738);
#683=AXIS2_PLACEMENT_3D('',#921,#739,#740);
#684=AXIS2_PLACEMENT_3D('',#923,#742,#743);
#685=AXIS2_PLACEMENT_3D('',#932,#748,#749);
#686=AXIS2_PLACEMENT_3D('',#938,#753,#754);
#687=AXIS2_PLACEMENT_3D('',#944,#758,#759);
#688=AXIS2_PLACEMENT_3D('',#947,#762,#763);
#689=AXIS2_PLACEMENT_3D('',#948,#764,#765);
#690=AXIS2_PLACEMENT_3D('',#949,#766,#767);
#691=AXIS2_PLACEMENT_3D('',#958,#772,#773);
#692=AXIS2_PLACEMENT_3D('',#964,#777,#778);
#693=AXIS2_PLACEMENT_3D('',#970,#782,#783);
#694=AXIS2_PLACEMENT_3D('',#973,#786,#787);
#695=AXIS2_PLACEMENT_3D('',#974,#788,#789);
#696=AXIS2_PLACEMENT_3D('',#975,#790,#791);
#697=AXIS2_PLACEMENT_3D('',#984,#796,#797);
#698=AXIS2_PLACEMENT_3D('',#990,#801,#802);
#699=AXIS2_PLACEMENT_3D('',#996,#806,#807);
#700=AXIS2_PLACEMENT_3D('',#999,#810,#811);
#701=AXIS2_PLACEMENT_3D('',#1000,#812,#813);
#702=AXIS2_PLACEMENT_3D('',#1001,#814,#815);
#703=AXIS2_PLACEMENT_3D('',#1010,#820,#821);
#704=AXIS2_PLACEMENT_3D('',#1016,#825,#826);
#705=AXIS2_PLACEMENT_3D('',#1022,#830,#831);
#706=AXIS2_PLACEMENT_3D('',#1025,#834,#835);
#707=AXIS2_PLACEMENT_3D('',#1026,#836,#837);
#708=AXIS2_PLACEMENT_3D('',#1027,#838,#839);
#709=AXIS2_PLACEMENT_3D('',#1085,#843,#844);
#710=AXIS2_PLACEMENT_3D('',#1091,#848,#849);
#711=AXIS2_PLACEMENT_3D('',#1247,#853,#854);
#712=AXIS2_PLACEMENT_3D('',#1249,#856,#857);
#713=AXIS2_PLACEMENT_3D('',#1250,#858,#859);
#714=AXIS2_PLACEMENT_3D('',#1308,#862,#863);
#715=AXIS2_PLACEMENT_3D('',#1385,#867,#868);
#716=AXIS2_PLACEMENT_3D('',#1389,#871,#872);
#717=AXIS2_PLACEMENT_3D('',#1453,#875,#876);
#718=DIRECTION('axis',(0.,0.,1.));
#719=DIRECTION('refdir',(1.,0.,0.));
#720=DIRECTION('center_axis',(0.,0.,1.));
#721=DIRECTION('ref_axis',(1.,0.,0.));
#722=DIRECTION('center_axis',(0.,0.,-1.));
#723=DIRECTION('ref_axis',(1.,0.,0.));
#724=DIRECTION('center_axis',(0.,0.,-1.));
#725=DIRECTION('ref_axis',(1.,0.,0.));
#726=DIRECTION('center_axis',(0.,0.,-1.));
#727=DIRECTION('ref_axis',(0.,1.,0.));
#728=DIRECTION('center_axis',(0.,0.,-1.));
#729=DIRECTION('ref_axis',(1.,0.,0.));
#730=DIRECTION('',(0.,0.,1.));
#731=DIRECTION('center_axis',(0.,0.,-1.));
#732=DIRECTION('ref_axis',(-1.,0.,0.));
#733=DIRECTION('center_axis',(0.,0.,-1.));
#734=DIRECTION('ref_axis',(1.,0.,0.));
#735=DIRECTION('center_axis',(0.,0.,-1.));
#736=DIRECTION('ref_axis',(1.,0.,0.));
#737=DIRECTION('center_axis',(-1.22464679914735E-16,-1.,0.));
#738=DIRECTION('ref_axis',(1.,-1.22464679914735E-16,0.));
#739=DIRECTION('center_axis',(0.,0.,-1.));
#740=DIRECTION('ref_axis',(0.,1.,0.));
#741=DIRECTION('',(0.,0.,1.));
#742=DIRECTION('center_axis',(0.,-1.,0.));
#743=DIRECTION('ref_axis',(-1.,0.,0.));
#744=DIRECTION('',(-1.,0.,0.));
#745=DIRECTION('',(0.,0.,-1.));
#746=DIRECTION('',(-1.,0.,0.));
#747=DIRECTION('',(0.,0.,-1.));
#748=DIRECTION('center_axis',(1.,0.,0.));
#749=DIRECTION('ref_axis',(0.,-1.,0.));
#750=DIRECTION('',(0.,-1.,0.));
#751=DIRECTION('',(0.,-1.,0.));
#752=DIRECTION('',(0.,0.,-1.));
#753=DIRECTION('center_axis',(0.,1.,0.));
#754=DIRECTION('ref_axis',(1.,0.,0.));
#755=DIRECTION('',(1.,0.,0.));
#756=DIRECTION('',(1.,0.,0.));
#757=DIRECTION('',(0.,0.,-1.));
#758=DIRECTION('center_axis',(-1.,0.,0.));
#759=DIRECTION('ref_axis',(0.,1.,0.));
#760=DIRECTION('',(0.,1.,0.));
#761=DIRECTION('',(0.,1.,0.));
#762=DIRECTION('center_axis',(0.,0.,-1.));
#763=DIRECTION('ref_axis',(-1.,0.,0.));
#764=DIRECTION('center_axis',(0.,0.,-1.));
#765=DIRECTION('ref_axis',(1.,0.,0.));
#766=DIRECTION('center_axis',(1.,0.,0.));
#767=DIRECTION('ref_axis',(0.,-1.,0.));
#768=DIRECTION('',(0.,1.,0.));
#769=DIRECTION('',(0.,0.,-1.));
#770=DIRECTION('',(0.,-1.,0.));
#771=DIRECTION('',(0.,0.,-1.));
#772=DIRECTION('center_axis',(0.,1.,0.));
#773=DIRECTION('ref_axis',(1.,0.,0.));
#774=DIRECTION('',(-1.,0.,0.));
#775=DIRECTION('',(1.,0.,0.));
#776=DIRECTION('',(0.,0.,-1.));
#777=DIRECTION('center_axis',(-1.,0.,0.));
#778=DIRECTION('ref_axis',(0.,1.,0.));
#779=DIRECTION('',(0.,-1.,0.));
#780=DIRECTION('',(0.,1.,0.));
#781=DIRECTION('',(0.,0.,-1.));
#782=DIRECTION('center_axis',(0.,-1.,0.));
#783=DIRECTION('ref_axis',(-1.,0.,0.));
#784=DIRECTION('',(1.,0.,0.));
#785=DIRECTION('',(-1.,0.,0.));
#786=DIRECTION('center_axis',(0.,0.,-1.));
#787=DIRECTION('ref_axis',(-1.,0.,0.));
#788=DIRECTION('center_axis',(0.,0.,-1.));
#789=DIRECTION('ref_axis',(1.,0.,0.));
#790=DIRECTION('center_axis',(-1.,0.,0.));
#791=DIRECTION('ref_axis',(0.,1.,0.));
#792=DIRECTION('',(0.,1.,0.));
#793=DIRECTION('',(0.,0.,-1.));
#794=DIRECTION('',(0.,1.,0.));
#795=DIRECTION('',(0.,0.,-1.));
#796=DIRECTION('center_axis',(0.,-1.,0.));
#797=DIRECTION('ref_axis',(-1.,0.,0.));
#798=DIRECTION('',(-1.,0.,0.));
#799=DIRECTION('',(-1.,0.,0.));
#800=DIRECTION('',(0.,0.,-1.));
#801=DIRECTION('center_axis',(1.,0.,0.));
#802=DIRECTION('ref_axis',(0.,-1.,0.));
#803=DIRECTION('',(0.,-1.,0.));
#804=DIRECTION('',(0.,-1.,0.));
#805=DIRECTION('',(0.,0.,-1.));
#806=DIRECTION('center_axis',(0.,1.,0.));
#807=DIRECTION('ref_axis',(1.,0.,0.));
#808=DIRECTION('',(1.,0.,0.));
#809=DIRECTION('',(1.,0.,0.));
#810=DIRECTION('center_axis',(0.,0.,-1.));
#811=DIRECTION('ref_axis',(-1.,0.,0.));
#812=DIRECTION('center_axis',(0.,0.,-1.));
#813=DIRECTION('ref_axis',(1.,0.,0.));
#814=DIRECTION('center_axis',(1.,0.,0.));
#815=DIRECTION('ref_axis',(0.,-1.,0.));
#816=DIRECTION('',(0.,1.,0.));
#817=DIRECTION('',(0.,0.,-1.));
#818=DIRECTION('',(0.,-1.,0.));
#819=DIRECTION('',(0.,0.,-1.));
#820=DIRECTION('center_axis',(0.,1.,0.));
#821=DIRECTION('ref_axis',(1.,0.,0.));
#822=DIRECTION('',(-1.,0.,0.));
#823=DIRECTION('',(1.,0.,0.));
#824=DIRECTION('',(0.,0.,-1.));
#825=DIRECTION('center_axis',(-1.,0.,0.));
#826=DIRECTION('ref_axis',(0.,1.,0.));
#827=DIRECTION('',(0.,-1.,0.));
#828=DIRECTION('',(0.,1.,0.));
#829=DIRECTION('',(0.,0.,-1.));
#830=DIRECTION('center_axis',(0.,-1.,0.));
#831=DIRECTION('ref_axis',(-1.,0.,0.));
#832=DIRECTION('',(1.,0.,0.));
#833=DIRECTION('',(-1.,0.,0.));
#834=DIRECTION('center_axis',(0.,0.,-1.));
#835=DIRECTION('ref_axis',(-1.,0.,0.));
#836=DIRECTION('center_axis',(0.,0.,-1.));
#837=DIRECTION('ref_axis',(1.,0.,0.));
#838=DIRECTION('center_axis',(0.,1.,0.));
#839=DIRECTION('ref_axis',(1.,0.,0.));
#840=DIRECTION('',(0.,0.,-1.));
#841=DIRECTION('',(1.,0.,0.));
#842=DIRECTION('',(0.,0.,1.));
#843=DIRECTION('center_axis',(0.,0.,-1.));
#844=DIRECTION('ref_axis',(-1.,0.,0.));
#845=DIRECTION('',(0.,-1.,0.));
#846=DIRECTION('',(-1.,0.,0.));
#847=DIRECTION('',(0.,1.,0.));
#848=DIRECTION('center_axis',(1.,0.,0.));
#849=DIRECTION('ref_axis',(0.,0.,-1.));
#850=DIRECTION('',(0.,0.,-1.));
#851=DIRECTION('',(0.,1.,0.));
#852=DIRECTION('',(0.,1.,0.));
#853=DIRECTION('center_axis',(-1.,0.,0.));
#854=DIRECTION('ref_axis',(0.,0.,1.));
#855=DIRECTION('',(0.,0.,1.));
#856=DIRECTION('center_axis',(0.,1.,0.));
#857=DIRECTION('ref_axis',(1.,0.,0.));
#858=DIRECTION('center_axis',(0.,1.,0.));
#859=DIRECTION('ref_axis',(1.,0.,0.));
#860=DIRECTION('',(1.,0.,0.));
#861=DIRECTION('',(0.,0.,1.));
#862=DIRECTION('center_axis',(1.03004027364607E-11,0.,1.));
#863=DIRECTION('ref_axis',(1.,0.,-1.03004027364607E-11));
#864=DIRECTION('',(0.,-1.,0.));
#865=DIRECTION('',(0.,1.,0.));
#866=DIRECTION('',(0.,1.,0.));
#867=DIRECTION('center_axis',(0.,0.,-1.));
#868=DIRECTION('ref_axis',(-1.,0.,0.));
#869=DIRECTION('',(-1.,0.,0.));
#870=DIRECTION('',(0.,1.,0.));
#871=DIRECTION('center_axis',(1.,0.,0.));
#872=DIRECTION('ref_axis',(0.,0.,-1.));
#873=DIRECTION('',(0.,0.,-1.));
#874=DIRECTION('',(0.,1.,0.));
#875=DIRECTION('center_axis',(0.,1.,0.));
#876=DIRECTION('ref_axis',(1.,0.,0.));
#877=CARTESIAN_POINT('',(0.,0.,0.));
#878=CARTESIAN_POINT('Origin',(0.,2.8,0.));
#879=CARTESIAN_POINT('',(-3.42901103761259E-16,-2.8,0.));
#880=CARTESIAN_POINT('Origin',(0.,0.,0.));
#881=CARTESIAN_POINT('',(-3.06161699786838E-16,-2.5,0.));
#882=CARTESIAN_POINT('Origin',(0.,0.,0.));
#883=CARTESIAN_POINT('Origin',(0.,0.,-0.5));
#884=CARTESIAN_POINT('',(-3.42901103761259E-16,-2.8,-1.));
#885=CARTESIAN_POINT('Origin',(0.,0.,-1.));
#886=CARTESIAN_POINT('',(-3.42901103761259E-16,-2.8,-0.5));
#887=CARTESIAN_POINT('Origin',(0.,0.,-1.));
#888=CARTESIAN_POINT('Ctrl Pts',(-4.33680868994202E-17,0.,7.7));
#889=CARTESIAN_POINT('Ctrl Pts',(-4.33680868994202E-17,4.33680868994202E-17,
7.7));
#890=CARTESIAN_POINT('Ctrl Pts',(0.,4.33680868994202E-17,7.7));
#891=CARTESIAN_POINT('Ctrl Pts',(4.33680868994202E-17,4.33680868994202E-17,
7.7));
#892=CARTESIAN_POINT('Ctrl Pts',(4.33680868994202E-17,0.,7.7));
#893=CARTESIAN_POINT('Ctrl Pts',(4.33680868994202E-17,-4.33680868994202E-17,
7.7));
#894=CARTESIAN_POINT('Ctrl Pts',(0.,-4.33680868994202E-17,7.7));
#895=CARTESIAN_POINT('Ctrl Pts',(-4.33680868994202E-17,-4.33680868994202E-17,
7.7));
#896=CARTESIAN_POINT('Ctrl Pts',(-4.33680868994202E-17,0.,7.7));
#897=CARTESIAN_POINT('Ctrl Pts',(2.15530167883812,0.,7.7277400938549));
#898=CARTESIAN_POINT('Ctrl Pts',(2.15530167883812,-2.15530167883812,7.7277400938549));
#899=CARTESIAN_POINT('Ctrl Pts',(0.,-2.15530167883812,7.7277400938549));
#900=CARTESIAN_POINT('Ctrl Pts',(-2.15530167883812,-2.15530167883812,7.7277400938549));
#901=CARTESIAN_POINT('Ctrl Pts',(-2.15530167883812,0.,7.7277400938549));
#902=CARTESIAN_POINT('Ctrl Pts',(-2.15530167883812,2.15530167883812,7.7277400938549));
#903=CARTESIAN_POINT('Ctrl Pts',(0.,2.15530167883812,7.7277400938549));
#904=CARTESIAN_POINT('Ctrl Pts',(2.15530167883812,2.15530167883812,7.7277400938549));
#905=CARTESIAN_POINT('Ctrl Pts',(2.15530167883812,0.,7.7277400938549));
#906=CARTESIAN_POINT('Ctrl Pts',(2.5,0.,5.6));
#907=CARTESIAN_POINT('Ctrl Pts',(2.5,-2.5,5.6));
#908=CARTESIAN_POINT('Ctrl Pts',(0.,-2.5,5.6));
#909=CARTESIAN_POINT('Ctrl Pts',(-2.5,-2.5,5.6));
#910=CARTESIAN_POINT('Ctrl Pts',(-2.5,0.,5.6));
#911=CARTESIAN_POINT('Ctrl Pts',(-2.5,2.5,5.6));
#912=CARTESIAN_POINT('Ctrl Pts',(0.,2.5,5.6));
#913=CARTESIAN_POINT('Ctrl Pts',(2.5,2.5,5.6));
#914=CARTESIAN_POINT('Ctrl Pts',(2.5,0.,5.6));
#915=CARTESIAN_POINT('',(-3.06161699786838E-16,-2.5,5.6));
#916=CARTESIAN_POINT('',(2.5,-3.06161699786838E-16,5.6));
#917=CARTESIAN_POINT('Origin',(0.,0.,5.6));
#918=CARTESIAN_POINT('Origin',(0.,0.,5.6));
#919=CARTESIAN_POINT('',(0.,6.93889390390723E-17,7.7));
#920=CARTESIAN_POINT('Origin',(0.0321739142083872,-3.9401681051343E-18,
5.20020704072427));
#921=CARTESIAN_POINT('Origin',(0.,0.,2.8));
#922=CARTESIAN_POINT('',(-3.06161699786838E-16,-2.5,2.8));
#923=CARTESIAN_POINT('Origin',(2.29999993741512,-0.23,-1.));
#924=CARTESIAN_POINT('',(2.29999993741512,-0.23,-1.));
#925=CARTESIAN_POINT('',(1.77999993741512,-0.23,-1.));
#926=CARTESIAN_POINT('',(2.29999993741512,-0.23,-1.));
#927=CARTESIAN_POINT('',(1.77999993741512,-0.23,-25.3));
#928=CARTESIAN_POINT('',(1.77999993741512,-0.23,-1.));
#929=CARTESIAN_POINT('',(2.29999993741512,-0.23,-25.3));
#930=CARTESIAN_POINT('',(2.29999993741512,-0.23,-25.3));
#931=CARTESIAN_POINT('',(2.29999993741512,-0.23,-1.));
#932=CARTESIAN_POINT('Origin',(2.29999993741512,0.23,-1.));
#933=CARTESIAN_POINT('',(2.29999993741512,0.23,-1.));
#934=CARTESIAN_POINT('',(2.29999993741512,0.23,-1.));
#935=CARTESIAN_POINT('',(2.29999993741512,0.23,-25.3));
#936=CARTESIAN_POINT('',(2.29999993741512,0.23,-25.3));
#937=CARTESIAN_POINT('',(2.29999993741512,0.23,-1.));
#938=CARTESIAN_POINT('Origin',(1.77999993741512,0.23,-1.));
#939=CARTESIAN_POINT('',(1.77999993741512,0.23,-1.));
#940=CARTESIAN_POINT('',(1.77999993741512,0.23,-1.));
#941=CARTESIAN_POINT('',(1.77999993741512,0.23,-25.3));
#942=CARTESIAN_POINT('',(1.77999993741512,0.23,-25.3));
#943=CARTESIAN_POINT('',(1.77999993741512,0.23,-1.));
#944=CARTESIAN_POINT('Origin',(1.77999993741512,-0.23,-1.));
#945=CARTESIAN_POINT('',(1.77999993741512,-0.23,-1.));
#946=CARTESIAN_POINT('',(1.77999993741512,-0.23,-25.3));
#947=CARTESIAN_POINT('Origin',(2.03999993741512,0.,-25.3));
#948=CARTESIAN_POINT('Origin',(2.03999993741512,0.,-1.));
#949=CARTESIAN_POINT('Origin',(0.879999937415123,0.23,-1.));
#950=CARTESIAN_POINT('',(0.879999937415123,-0.23,-1.));
#951=CARTESIAN_POINT('',(0.879999937415123,0.23,-1.));
#952=CARTESIAN_POINT('',(0.879999937415123,-0.23,-1.));
#953=CARTESIAN_POINT('',(0.879999937415123,-0.23,-26.8));
#954=CARTESIAN_POINT('',(0.879999937415123,-0.23,-1.));
#955=CARTESIAN_POINT('',(0.879999937415123,0.23,-26.8));
#956=CARTESIAN_POINT('',(0.879999937415123,-0.23,-26.8));
#957=CARTESIAN_POINT('',(0.879999937415123,0.23,-1.));
#958=CARTESIAN_POINT('Origin',(0.359999937415123,0.23,-1.));
#959=CARTESIAN_POINT('',(0.359999937415123,0.23,-1.));
#960=CARTESIAN_POINT('',(0.879999937415123,0.23,-1.));
#961=CARTESIAN_POINT('',(0.359999937415123,0.23,-26.8));
#962=CARTESIAN_POINT('',(0.879999937415123,0.23,-26.8));
#963=CARTESIAN_POINT('',(0.359999937415123,0.23,-1.));
#964=CARTESIAN_POINT('Origin',(0.359999937415123,-0.23,-1.));
#965=CARTESIAN_POINT('',(0.359999937415123,-0.23,-1.));
#966=CARTESIAN_POINT('',(0.359999937415123,0.23,-1.));
#967=CARTESIAN_POINT('',(0.359999937415123,-0.23,-26.8));
#968=CARTESIAN_POINT('',(0.359999937415123,0.23,-26.8));
#969=CARTESIAN_POINT('',(0.359999937415123,-0.23,-1.));
#970=CARTESIAN_POINT('Origin',(0.879999937415123,-0.23,-1.));
#971=CARTESIAN_POINT('',(0.359999937415123,-0.23,-1.));
#972=CARTESIAN_POINT('',(0.359999937415123,-0.23,-26.8));
#973=CARTESIAN_POINT('Origin',(0.619999937415123,0.,-26.8));
#974=CARTESIAN_POINT('Origin',(0.619999937415123,0.,-1.));
#975=CARTESIAN_POINT('Origin',(-0.879999937415123,-0.23,-1.));
#976=CARTESIAN_POINT('',(-0.879999937415123,-0.23,-1.));
#977=CARTESIAN_POINT('',(-0.879999937415123,0.23,-1.));
#978=CARTESIAN_POINT('',(-0.879999937415123,-0.23,-1.));
#979=CARTESIAN_POINT('',(-0.879999937415123,0.23,-25.3));
#980=CARTESIAN_POINT('',(-0.879999937415123,0.23,-1.));
#981=CARTESIAN_POINT('',(-0.879999937415123,-0.23,-25.3));
#982=CARTESIAN_POINT('',(-0.879999937415123,-0.23,-25.3));
#983=CARTESIAN_POINT('',(-0.879999937415123,-0.23,-1.));
#984=CARTESIAN_POINT('Origin',(-0.359999937415123,-0.23,-1.));
#985=CARTESIAN_POINT('',(-0.359999937415123,-0.23,-1.));
#986=CARTESIAN_POINT('',(-0.359999937415123,-0.23,-1.));
#987=CARTESIAN_POINT('',(-0.359999937415123,-0.23,-25.3));
#988=CARTESIAN_POINT('',(-0.359999937415123,-0.23,-25.3));
#989=CARTESIAN_POINT('',(-0.359999937415123,-0.23,-1.));
#990=CARTESIAN_POINT('Origin',(-0.359999937415123,0.23,-1.));
#991=CARTESIAN_POINT('',(-0.359999937415123,0.23,-1.));
#992=CARTESIAN_POINT('',(-0.359999937415123,0.23,-1.));
#993=CARTESIAN_POINT('',(-0.359999937415123,0.23,-25.3));
#994=CARTESIAN_POINT('',(-0.359999937415123,0.23,-25.3));
#995=CARTESIAN_POINT('',(-0.359999937415123,0.23,-1.));
#996=CARTESIAN_POINT('Origin',(-0.879999937415123,0.23,-1.));
#997=CARTESIAN_POINT('',(-0.879999937415123,0.23,-1.));
#998=CARTESIAN_POINT('',(-0.879999937415123,0.23,-25.3));
#999=CARTESIAN_POINT('Origin',(-0.619999937415123,0.,-25.3));
#1000=CARTESIAN_POINT('Origin',(-0.619999937415123,0.,-1.));
#1001=CARTESIAN_POINT('Origin',(-1.77999993741512,0.23,-1.));
#1002=CARTESIAN_POINT('',(-1.77999993741512,-0.23,-1.));
#1003=CARTESIAN_POINT('',(-1.77999993741512,0.23,-1.));
#1004=CARTESIAN_POINT('',(-1.77999993741512,-0.23,-1.));
#1005=CARTESIAN_POINT('',(-1.77999993741512,-0.23,-24.4));
#1006=CARTESIAN_POINT('',(-1.77999993741512,-0.23,-1.));
#1007=CARTESIAN_POINT('',(-1.77999993741512,0.23,-24.4));
#1008=CARTESIAN_POINT('',(-1.77999993741512,-0.23,-24.4));
#1009=CARTESIAN_POINT('',(-1.77999993741512,0.23,-1.));
#1010=CARTESIAN_POINT('Origin',(-2.29999993741512,0.23,-1.));
#1011=CARTESIAN_POINT('',(-2.29999993741512,0.23,-1.));
#1012=CARTESIAN_POINT('',(-1.77999993741512,0.23,-1.));
#1013=CARTESIAN_POINT('',(-2.29999993741512,0.23,-24.4));
#1014=CARTESIAN_POINT('',(-1.77999993741512,0.23,-24.4));
#1015=CARTESIAN_POINT('',(-2.29999993741512,0.23,-1.));
#1016=CARTESIAN_POINT('Origin',(-2.29999993741512,-0.23,-1.));
#1017=CARTESIAN_POINT('',(-2.29999993741512,-0.23,-1.));
#1018=CARTESIAN_POINT('',(-2.29999993741512,0.23,-1.));
#1019=CARTESIAN_POINT('',(-2.29999993741512,-0.23,-24.4));
#1020=CARTESIAN_POINT('',(-2.29999993741512,0.23,-24.4));
#1021=CARTESIAN_POINT('',(-2.29999993741512,-0.23,-1.));
#1022=CARTESIAN_POINT('Origin',(-1.77999993741512,-0.23,-1.));
#1023=CARTESIAN_POINT('',(-2.29999993741512,-0.23,-1.));
#1024=CARTESIAN_POINT('',(-2.29999993741512,-0.23,-24.4));
#1025=CARTESIAN_POINT('Origin',(-2.03999993741512,0.,-24.4));
#1026=CARTESIAN_POINT('Origin',(-2.03999993741512,0.,-1.));
#1027=CARTESIAN_POINT('Origin',(0.406271028914238,-0.28,1.36280438414932));
#1028=CARTESIAN_POINT('',(0.513633324081144,-0.28,1.74490944821837));
#1029=CARTESIAN_POINT('',(0.513633324081144,-0.28,-1.00000001490116));
#1030=CARTESIAN_POINT('',(0.513633324081144,-0.28,-1.00000001490116));
#1031=CARTESIAN_POINT('',(0.725826499811988,-0.28,-1.00000001490116));
#1032=CARTESIAN_POINT('',(0.513633324081144,-0.28,-1.00000001490116));
#1033=CARTESIAN_POINT('',(0.725826499811988,-0.28,1.74490944821837));
#1034=CARTESIAN_POINT('',(0.725826499811988,-0.28,-1.00000001490116));
#1035=CARTESIAN_POINT('Ctrl Pts',(0.725826499811988,-0.28,1.74490944821837));
#1036=CARTESIAN_POINT('Ctrl Pts',(0.725961739877034,-0.28,1.78636281361418));
#1037=CARTESIAN_POINT('Ctrl Pts',(0.729053624134014,-0.28,1.86753336409611));
#1038=CARTESIAN_POINT('Ctrl Pts',(0.742155561808968,-0.28,1.98408073841545));
#1039=CARTESIAN_POINT('Ctrl Pts',(0.7765675288428,-0.28,2.12905117897213));
#1040=CARTESIAN_POINT('Ctrl Pts',(0.847381515843125,-0.28,2.29312238636374));
#1041=CARTESIAN_POINT('Ctrl Pts',(0.94455608625529,-0.28,2.44082705609161));
#1042=CARTESIAN_POINT('Ctrl Pts',(1.06507843186633,-0.28,2.57380692736389));
#1043=CARTESIAN_POINT('Ctrl Pts',(1.20388682124769,-0.28,2.69480586291601));
#1044=CARTESIAN_POINT('Ctrl Pts',(1.35312651543439,-0.28,2.80814233433158));
#1045=CARTESIAN_POINT('Ctrl Pts',(1.50300723284662,-0.28,2.91877618935156));
#1046=CARTESIAN_POINT('Ctrl Pts',(1.64307470863504,-0.28,3.03103358156654));
#1047=CARTESIAN_POINT('Ctrl Pts',(1.76341040429904,-0.28,3.14734223148472));
#1048=CARTESIAN_POINT('Ctrl Pts',(1.85570370512273,-0.28,3.26718986478588));
#1049=CARTESIAN_POINT('Ctrl Pts',(1.91477864143971,-0.28,3.38539858997314));
#1050=CARTESIAN_POINT('Ctrl Pts',(1.93819547368111,-0.28,3.49322270716226));
#1051=CARTESIAN_POINT('Ctrl Pts',(1.92419065953759,-0.28,3.58183483062973));
#1052=CARTESIAN_POINT('Ctrl Pts',(1.87036162104729,-0.28,3.64480376979536));
#1053=CARTESIAN_POINT('Ctrl Pts',(1.77143051544942,-0.28,3.68174246670399));
#1054=CARTESIAN_POINT('Ctrl Pts',(1.62049124172058,-0.28,3.69769188690602));
#1055=CARTESIAN_POINT('Ctrl Pts',(1.41189287584138,-0.28,3.70048263620183));
#1056=CARTESIAN_POINT('Ctrl Pts',(1.14372347854975,-0.28,3.69867716556452));
#1057=CARTESIAN_POINT('Ctrl Pts',(0.820241223329748,-0.28,3.6994044636348));
#1058=CARTESIAN_POINT('Ctrl Pts',(0.454901887036662,-0.28,3.70593250469937));
#1059=CARTESIAN_POINT('Ctrl Pts',(0.0714070809334541,-0.28,3.71631402616653));
#1060=CARTESIAN_POINT('Ctrl Pts',(-0.301107152072903,-0.28,3.72529247660718));
#1061=CARTESIAN_POINT('Ctrl Pts',(-0.631813096088267,-0.28,3.7256087831998));
#1062=CARTESIAN_POINT('Ctrl Pts',(-0.892336468855678,-0.28,3.70953429258007));
#1063=CARTESIAN_POINT('Ctrl Pts',(-1.06076057978083,-0.28,3.67031094202957));
#1064=CARTESIAN_POINT('Ctrl Pts',(-1.12565341585263,-0.28,3.60361832159983));
#1065=CARTESIAN_POINT('Ctrl Pts',(-1.09025925102201,-0.28,3.50907368603585));
#1066=CARTESIAN_POINT('Ctrl Pts',(-0.976279166990149,-0.28,3.39162742528186));
#1067=CARTESIAN_POINT('Ctrl Pts',(-0.815853340805874,-0.28,3.2598292386372));
#1068=CARTESIAN_POINT('Ctrl Pts',(-0.643990790962924,-0.28,3.12421658921874));
#1069=CARTESIAN_POINT('Ctrl Pts',(-0.49085432963136,-0.28,2.99566559564893));
#1070=CARTESIAN_POINT('Ctrl Pts',(-0.374088536697856,-0.28,2.88376173465308));
#1071=CARTESIAN_POINT('Ctrl Pts',(-0.291121443289037,-0.28,2.79515762487794));
#1072=CARTESIAN_POINT('Ctrl Pts',(-0.227275834222359,-0.28,2.73292512945809));
#1073=CARTESIAN_POINT('Ctrl Pts',(-0.163876432869871,-0.28,2.69587735986583));
#1074=CARTESIAN_POINT('Ctrl Pts',(-0.0862275377694513,-0.28,2.67792271258499));
#1075=CARTESIAN_POINT('Ctrl Pts',(0.00805989474963796,-0.28,2.6672970717888));
#1076=CARTESIAN_POINT('Ctrl Pts',(0.113068160171605,-0.28,2.6492222135938));
#1077=CARTESIAN_POINT('Ctrl Pts',(0.218731948737201,-0.28,2.60853178677138));
#1078=CARTESIAN_POINT('Ctrl Pts',(0.315242144800589,-0.28,2.5325439626254));
#1079=CARTESIAN_POINT('Ctrl Pts',(0.396388123247151,-0.28,2.41312797951311));
#1080=CARTESIAN_POINT('Ctrl Pts',(0.458398256059963,-0.28,2.24544601364181));
#1081=CARTESIAN_POINT('Ctrl Pts',(0.491251606025964,-0.28,2.07085160297105));
#1082=CARTESIAN_POINT('Ctrl Pts',(0.506205595262586,-0.28,1.91684207676642));
#1083=CARTESIAN_POINT('Ctrl Pts',(0.511874225668996,-0.28,1.80392730459137));
#1084=CARTESIAN_POINT('Ctrl Pts',(0.513633324081144,-0.28,1.74490944821837));
#1085=CARTESIAN_POINT('Origin',(0.725826499811988,0.,-1.00000001490116));
#1086=CARTESIAN_POINT('',(0.513633324081144,0.28,-1.00000001490116));
#1087=CARTESIAN_POINT('',(0.513633324081144,0.,-1.00000001490116));
#1088=CARTESIAN_POINT('',(0.725826499811988,0.28,-1.00000001490116));
#1089=CARTESIAN_POINT('',(0.513633324081144,0.28,-1.00000001490116));
#1090=CARTESIAN_POINT('',(0.725826499811988,0.,-1.00000001490116));
#1091=CARTESIAN_POINT('Origin',(0.725826499811988,0.,1.74490944821837));
#1092=CARTESIAN_POINT('',(0.725826499811988,0.28,1.74490944821837));
#1093=CARTESIAN_POINT('',(0.725826499811988,0.28,-1.00000001490116));
#1094=CARTESIAN_POINT('',(0.725826499811988,0.,1.74490944821837));
#1095=CARTESIAN_POINT('Ctrl Pts',(0.513633324081144,-0.28,1.74490944821837));
#1096=CARTESIAN_POINT('Ctrl Pts',(0.513633324081144,0.28,1.74490944821837));
#1097=CARTESIAN_POINT('Ctrl Pts',(0.511874225668996,-0.28,1.80392730459137));
#1098=CARTESIAN_POINT('Ctrl Pts',(0.511874225668996,0.28,1.80392730459137));
#1099=CARTESIAN_POINT('Ctrl Pts',(0.506205595262586,-0.28,1.91684207676642));
#1100=CARTESIAN_POINT('Ctrl Pts',(0.506205595262586,0.28,1.91684207676642));
#1101=CARTESIAN_POINT('Ctrl Pts',(0.491251606025964,-0.28,2.07085160297105));
#1102=CARTESIAN_POINT('Ctrl Pts',(0.491251606025964,0.28,2.07085160297105));
#1103=CARTESIAN_POINT('Ctrl Pts',(0.458398256059963,-0.28,2.24544601364181));
#1104=CARTESIAN_POINT('Ctrl Pts',(0.458398256059963,0.28,2.24544601364181));
#1105=CARTESIAN_POINT('Ctrl Pts',(0.396388123247151,-0.28,2.41312797951311));
#1106=CARTESIAN_POINT('Ctrl Pts',(0.396388123247151,0.28,2.41312797951311));
#1107=CARTESIAN_POINT('Ctrl Pts',(0.315242144800589,-0.28,2.5325439626254));
#1108=CARTESIAN_POINT('Ctrl Pts',(0.315242144800589,0.28,2.5325439626254));
#1109=CARTESIAN_POINT('Ctrl Pts',(0.218731948737201,-0.28,2.60853178677138));
#1110=CARTESIAN_POINT('Ctrl Pts',(0.218731948737201,0.28,2.60853178677138));
#1111=CARTESIAN_POINT('Ctrl Pts',(0.113068160171605,-0.28,2.6492222135938));
#1112=CARTESIAN_POINT('Ctrl Pts',(0.113068160171605,0.28,2.6492222135938));
#1113=CARTESIAN_POINT('Ctrl Pts',(0.00805989474963796,-0.28,2.6672970717888));
#1114=CARTESIAN_POINT('Ctrl Pts',(0.00805989474963796,0.28,2.6672970717888));
#1115=CARTESIAN_POINT('Ctrl Pts',(-0.0862275377694513,-0.28,2.67792271258499));
#1116=CARTESIAN_POINT('Ctrl Pts',(-0.0862275377694513,0.28,2.67792271258499));
#1117=CARTESIAN_POINT('Ctrl Pts',(-0.163876432869871,-0.28,2.69587735986583));
#1118=CARTESIAN_POINT('Ctrl Pts',(-0.163876432869871,0.28,2.69587735986583));
#1119=CARTESIAN_POINT('Ctrl Pts',(-0.227275834222359,-0.28,2.73292512945809));
#1120=CARTESIAN_POINT('Ctrl Pts',(-0.227275834222359,0.28,2.73292512945809));
#1121=CARTESIAN_POINT('Ctrl Pts',(-0.291121443289037,-0.28,2.79515762487794));
#1122=CARTESIAN_POINT('Ctrl Pts',(-0.291121443289037,0.28,2.79515762487794));
#1123=CARTESIAN_POINT('Ctrl Pts',(-0.374088536697856,-0.28,2.88376173465308));
#1124=CARTESIAN_POINT('Ctrl Pts',(-0.374088536697856,0.28,2.88376173465308));
#1125=CARTESIAN_POINT('Ctrl Pts',(-0.49085432963136,-0.28,2.99566559564893));
#1126=CARTESIAN_POINT('Ctrl Pts',(-0.49085432963136,0.28,2.99566559564893));
#1127=CARTESIAN_POINT('Ctrl Pts',(-0.643990790962924,-0.28,3.12421658921874));
#1128=CARTESIAN_POINT('Ctrl Pts',(-0.643990790962924,0.28,3.12421658921874));
#1129=CARTESIAN_POINT('Ctrl Pts',(-0.815853340805874,-0.28,3.2598292386372));
#1130=CARTESIAN_POINT('Ctrl Pts',(-0.815853340805874,0.28,3.2598292386372));
#1131=CARTESIAN_POINT('Ctrl Pts',(-0.976279166990149,-0.28,3.39162742528186));
#1132=CARTESIAN_POINT('Ctrl Pts',(-0.976279166990149,0.28,3.39162742528186));
#1133=CARTESIAN_POINT('Ctrl Pts',(-1.09025925102201,-0.28,3.50907368603585));
#1134=CARTESIAN_POINT('Ctrl Pts',(-1.09025925102201,0.28,3.50907368603585));
#1135=CARTESIAN_POINT('Ctrl Pts',(-1.12565341585263,-0.28,3.60361832159983));
#1136=CARTESIAN_POINT('Ctrl Pts',(-1.12565341585263,0.28,3.60361832159983));
#1137=CARTESIAN_POINT('Ctrl Pts',(-1.06076057978083,-0.28,3.67031094202957));
#1138=CARTESIAN_POINT('Ctrl Pts',(-1.06076057978083,0.28,3.67031094202957));
#1139=CARTESIAN_POINT('Ctrl Pts',(-0.892336468855678,-0.28,3.70953429258007));
#1140=CARTESIAN_POINT('Ctrl Pts',(-0.892336468855678,0.28,3.70953429258007));
#1141=CARTESIAN_POINT('Ctrl Pts',(-0.631813096088267,-0.28,3.7256087831998));
#1142=CARTESIAN_POINT('Ctrl Pts',(-0.631813096088267,0.28,3.7256087831998));
#1143=CARTESIAN_POINT('Ctrl Pts',(-0.301107152072903,-0.28,3.72529247660718));
#1144=CARTESIAN_POINT('Ctrl Pts',(-0.301107152072903,0.28,3.72529247660718));
#1145=CARTESIAN_POINT('Ctrl Pts',(0.0714070809334541,-0.28,3.71631402616653));
#1146=CARTESIAN_POINT('Ctrl Pts',(0.0714070809334541,0.28,3.71631402616653));
#1147=CARTESIAN_POINT('Ctrl Pts',(0.454901887036662,-0.28,3.70593250469937));
#1148=CARTESIAN_POINT('Ctrl Pts',(0.454901887036662,0.28,3.70593250469937));
#1149=CARTESIAN_POINT('Ctrl Pts',(0.820241223329748,-0.28,3.6994044636348));
#1150=CARTESIAN_POINT('Ctrl Pts',(0.820241223329748,0.28,3.6994044636348));
#1151=CARTESIAN_POINT('Ctrl Pts',(1.14372347854975,-0.28,3.69867716556452));
#1152=CARTESIAN_POINT('Ctrl Pts',(1.14372347854975,0.28,3.69867716556452));
#1153=CARTESIAN_POINT('Ctrl Pts',(1.41189287584138,-0.28,3.70048263620183));
#1154=CARTESIAN_POINT('Ctrl Pts',(1.41189287584138,0.28,3.70048263620183));
#1155=CARTESIAN_POINT('Ctrl Pts',(1.62049124172058,-0.28,3.69769188690602));
#1156=CARTESIAN_POINT('Ctrl Pts',(1.62049124172058,0.28,3.69769188690602));
#1157=CARTESIAN_POINT('Ctrl Pts',(1.77143051544942,-0.28,3.68174246670399));
#1158=CARTESIAN_POINT('Ctrl Pts',(1.77143051544942,0.28,3.68174246670399));
#1159=CARTESIAN_POINT('Ctrl Pts',(1.87036162104729,-0.28,3.64480376979536));
#1160=CARTESIAN_POINT('Ctrl Pts',(1.87036162104729,0.28,3.64480376979536));
#1161=CARTESIAN_POINT('Ctrl Pts',(1.92419065953759,-0.28,3.58183483062973));
#1162=CARTESIAN_POINT('Ctrl Pts',(1.92419065953759,0.28,3.58183483062973));
#1163=CARTESIAN_POINT('Ctrl Pts',(1.93819547368111,-0.28,3.49322270716226));
#1164=CARTESIAN_POINT('Ctrl Pts',(1.93819547368111,0.28,3.49322270716226));
#1165=CARTESIAN_POINT('Ctrl Pts',(1.91477864143971,-0.28,3.38539858997314));
#1166=CARTESIAN_POINT('Ctrl Pts',(1.91477864143971,0.28,3.38539858997314));
#1167=CARTESIAN_POINT('Ctrl Pts',(1.85570370512273,-0.28,3.26718986478588));
#1168=CARTESIAN_POINT('Ctrl Pts',(1.85570370512273,0.28,3.26718986478588));
#1169=CARTESIAN_POINT('Ctrl Pts',(1.76341040429904,-0.28,3.14734223148472));
#1170=CARTESIAN_POINT('Ctrl Pts',(1.76341040429904,0.28,3.14734223148472));
#1171=CARTESIAN_POINT('Ctrl Pts',(1.64307470863504,-0.28,3.03103358156654));
#1172=CARTESIAN_POINT('Ctrl Pts',(1.64307470863504,0.28,3.03103358156654));
#1173=CARTESIAN_POINT('Ctrl Pts',(1.50300723284662,-0.28,2.91877618935156));
#1174=CARTESIAN_POINT('Ctrl Pts',(1.50300723284662,0.28,2.91877618935156));
#1175=CARTESIAN_POINT('Ctrl Pts',(1.35312651543439,-0.28,2.80814233433158));
#1176=CARTESIAN_POINT('Ctrl Pts',(1.35312651543439,0.28,2.80814233433158));
#1177=CARTESIAN_POINT('Ctrl Pts',(1.20388682124769,-0.28,2.69480586291601));
#1178=CARTESIAN_POINT('Ctrl Pts',(1.20388682124769,0.28,2.69480586291601));
#1179=CARTESIAN_POINT('Ctrl Pts',(1.06507843186633,-0.28,2.57380692736389));
#1180=CARTESIAN_POINT('Ctrl Pts',(1.06507843186633,0.28,2.57380692736389));
#1181=CARTESIAN_POINT('Ctrl Pts',(0.94455608625529,-0.28,2.44082705609161));
#1182=CARTESIAN_POINT('Ctrl Pts',(0.94455608625529,0.28,2.44082705609161));
#1183=CARTESIAN_POINT('Ctrl Pts',(0.847381515843125,-0.28,2.29312238636374));
#1184=CARTESIAN_POINT('Ctrl Pts',(0.847381515843125,0.28,2.29312238636374));
#1185=CARTESIAN_POINT('Ctrl Pts',(0.7765675288428,-0.28,2.12905117897213));
#1186=CARTESIAN_POINT('Ctrl Pts',(0.7765675288428,0.28,2.12905117897213));
#1187=CARTESIAN_POINT('Ctrl Pts',(0.742155561808968,-0.28,1.98408073841545));
#1188=CARTESIAN_POINT('Ctrl Pts',(0.742155561808968,0.28,1.98408073841545));
#1189=CARTESIAN_POINT('Ctrl Pts',(0.729053624134014,-0.28,1.86753336409611));
#1190=CARTESIAN_POINT('Ctrl Pts',(0.729053624134014,0.28,1.86753336409611));
#1191=CARTESIAN_POINT('Ctrl Pts',(0.725961739877034,-0.28,1.78636281361418));
#1192=CARTESIAN_POINT('Ctrl Pts',(0.725961739877034,0.28,1.78636281361418));
#1193=CARTESIAN_POINT('Ctrl Pts',(0.725826499811988,-0.28,1.74490944821837));
#1194=CARTESIAN_POINT('Ctrl Pts',(0.725826499811988,0.28,1.74490944821837));
#1195=CARTESIAN_POINT('',(0.513633324081144,0.28,1.74490944821837));
#1196=CARTESIAN_POINT('Ctrl Pts',(0.513633324081144,0.28,1.74490944821837));
#1197=CARTESIAN_POINT('Ctrl Pts',(0.511874225668996,0.28,1.80392730459137));
#1198=CARTESIAN_POINT('Ctrl Pts',(0.506205595262586,0.28,1.91684207676642));
#1199=CARTESIAN_POINT('Ctrl Pts',(0.491251606025964,0.28,2.07085160297105));
#1200=CARTESIAN_POINT('Ctrl Pts',(0.458398256059963,0.28,2.24544601364181));
#1201=CARTESIAN_POINT('Ctrl Pts',(0.396388123247151,0.28,2.41312797951311));
#1202=CARTESIAN_POINT('Ctrl Pts',(0.315242144800589,0.28,2.5325439626254));
#1203=CARTESIAN_POINT('Ctrl Pts',(0.218731948737201,0.28,2.60853178677138));
#1204=CARTESIAN_POINT('Ctrl Pts',(0.113068160171605,0.28,2.6492222135938));
#1205=CARTESIAN_POINT('Ctrl Pts',(0.00805989474963796,0.28,2.6672970717888));
#1206=CARTESIAN_POINT('Ctrl Pts',(-0.0862275377694513,0.28,2.67792271258499));
#1207=CARTESIAN_POINT('Ctrl Pts',(-0.163876432869871,0.28,2.69587735986583));
#1208=CARTESIAN_POINT('Ctrl Pts',(-0.227275834222359,0.28,2.73292512945809));
#1209=CARTESIAN_POINT('Ctrl Pts',(-0.291121443289037,0.28,2.79515762487794));
#1210=CARTESIAN_POINT('Ctrl Pts',(-0.374088536697856,0.28,2.88376173465308));
#1211=CARTESIAN_POINT('Ctrl Pts',(-0.49085432963136,0.28,2.99566559564893));
#1212=CARTESIAN_POINT('Ctrl Pts',(-0.643990790962924,0.28,3.12421658921874));
#1213=CARTESIAN_POINT('Ctrl Pts',(-0.815853340805874,0.28,3.2598292386372));
#1214=CARTESIAN_POINT('Ctrl Pts',(-0.976279166990149,0.28,3.39162742528186));
#1215=CARTESIAN_POINT('Ctrl Pts',(-1.09025925102201,0.28,3.50907368603585));
#1216=CARTESIAN_POINT('Ctrl Pts',(-1.12565341585263,0.28,3.60361832159983));
#1217=CARTESIAN_POINT('Ctrl Pts',(-1.06076057978083,0.28,3.67031094202957));
#1218=CARTESIAN_POINT('Ctrl Pts',(-0.892336468855678,0.28,3.70953429258007));
#1219=CARTESIAN_POINT('Ctrl Pts',(-0.631813096088267,0.28,3.7256087831998));
#1220=CARTESIAN_POINT('Ctrl Pts',(-0.301107152072903,0.28,3.72529247660718));
#1221=CARTESIAN_POINT('Ctrl Pts',(0.0714070809334541,0.28,3.71631402616653));
#1222=CARTESIAN_POINT('Ctrl Pts',(0.454901887036662,0.28,3.70593250469937));
#1223=CARTESIAN_POINT('Ctrl Pts',(0.820241223329748,0.28,3.6994044636348));
#1224=CARTESIAN_POINT('Ctrl Pts',(1.14372347854975,0.28,3.69867716556452));
#1225=CARTESIAN_POINT('Ctrl Pts',(1.41189287584138,0.28,3.70048263620183));
#1226=CARTESIAN_POINT('Ctrl Pts',(1.62049124172058,0.28,3.69769188690602));
#1227=CARTESIAN_POINT('Ctrl Pts',(1.77143051544942,0.28,3.68174246670399));
#1228=CARTESIAN_POINT('Ctrl Pts',(1.87036162104729,0.28,3.64480376979536));
#1229=CARTESIAN_POINT('Ctrl Pts',(1.92419065953759,0.28,3.58183483062973));
#1230=CARTESIAN_POINT('Ctrl Pts',(1.93819547368111,0.28,3.49322270716226));
#1231=CARTESIAN_POINT('Ctrl Pts',(1.91477864143971,0.28,3.38539858997314));
#1232=CARTESIAN_POINT('Ctrl Pts',(1.85570370512273,0.28,3.26718986478588));
#1233=CARTESIAN_POINT('Ctrl Pts',(1.76341040429904,0.28,3.14734223148472));
#1234=CARTESIAN_POINT('Ctrl Pts',(1.64307470863504,0.28,3.03103358156654));
#1235=CARTESIAN_POINT('Ctrl Pts',(1.50300723284662,0.28,2.91877618935156));
#1236=CARTESIAN_POINT('Ctrl Pts',(1.35312651543439,0.28,2.80814233433158));
#1237=CARTESIAN_POINT('Ctrl Pts',(1.20388682124769,0.28,2.69480586291601));
#1238=CARTESIAN_POINT('Ctrl Pts',(1.06507843186633,0.28,2.57380692736389));
#1239=CARTESIAN_POINT('Ctrl Pts',(0.94455608625529,0.28,2.44082705609161));
#1240=CARTESIAN_POINT('Ctrl Pts',(0.847381515843125,0.28,2.29312238636374));
#1241=CARTESIAN_POINT('Ctrl Pts',(0.7765675288428,0.28,2.12905117897213));
#1242=CARTESIAN_POINT('Ctrl Pts',(0.742155561808968,0.28,1.98408073841545));
#1243=CARTESIAN_POINT('Ctrl Pts',(0.729053624134014,0.28,1.86753336409611));
#1244=CARTESIAN_POINT('Ctrl Pts',(0.725961739877034,0.28,1.78636281361418));
#1245=CARTESIAN_POINT('Ctrl Pts',(0.725826499811988,0.28,1.74490944821837));
#1246=CARTESIAN_POINT('',(0.513633324081144,0.,1.74490944821837));
#1247=CARTESIAN_POINT('Origin',(0.513633324081144,0.,-1.00000001490116));
#1248=CARTESIAN_POINT('',(0.513633324081144,0.28,-1.00000001490116));
#1249=CARTESIAN_POINT('Origin',(0.406271028914238,0.28,1.36280438414932));
#1250=CARTESIAN_POINT('Origin',(-1.35901310481609,-0.28,1.29999997094274));
#1251=CARTESIAN_POINT('',(-0.299999993294477,-0.28,2.49999994412065));
#1252=CARTESIAN_POINT('',(-1.39999996870756,-0.28,3.59999991953373));
#1253=CARTESIAN_POINT('Ctrl Pts',(-0.299999993294477,-0.28,2.49999994412065));
#1254=CARTESIAN_POINT('Ctrl Pts',(-0.303720894422585,-0.28,2.49467131624505));
#1255=CARTESIAN_POINT('Ctrl Pts',(-0.312409530165866,-0.28,2.48636659812783));
#1256=CARTESIAN_POINT('Ctrl Pts',(-0.329183102698715,-0.28,2.4809673641258));
#1257=CARTESIAN_POINT('Ctrl Pts',(-0.359082468841511,-0.28,2.48798470364617));
#1258=CARTESIAN_POINT('Ctrl Pts',(-0.409167150826685,-0.28,2.52072466416223));
#1259=CARTESIAN_POINT('Ctrl Pts',(-0.471821935579979,-0.28,2.57712500048386));
#1260=CARTESIAN_POINT('Ctrl Pts',(-0.546329180937308,-0.28,2.65574660262984));
#1261=CARTESIAN_POINT('Ctrl Pts',(-0.630909884135601,-0.28,2.75308468841693));
#1262=CARTESIAN_POINT('Ctrl Pts',(-0.722841180557469,-0.28,2.8637996670072));
#1263=CARTESIAN_POINT('Ctrl Pts',(-0.818953795402394,-0.28,2.98168464834851));
#1264=CARTESIAN_POINT('Ctrl Pts',(-0.915978809051054,-0.28,3.10034370077803));
#1265=CARTESIAN_POINT('Ctrl Pts',(-1.01092357547804,-0.28,3.21392827614261));
#1266=CARTESIAN_POINT('Ctrl Pts',(-1.10145511576521,-0.28,3.3178922041692));
#1267=CARTESIAN_POINT('Ctrl Pts',(-1.18623830582404,-0.28,3.40965852290464));
#1268=CARTESIAN_POINT('Ctrl Pts',(-1.26462051432162,-0.28,3.48798994743595));
#1269=CARTESIAN_POINT('Ctrl Pts',(-1.32204777984099,-0.28,3.53962707683876));
#1270=CARTESIAN_POINT('Ctrl Pts',(-1.36216426354802,-0.28,3.57219252201261));
#1271=CARTESIAN_POINT('Ctrl Pts',(-1.38760528721507,-0.28,3.59118394093451));
#1272=CARTESIAN_POINT('Ctrl Pts',(-1.39999996870756,-0.28,3.59999991953373));
#1273=CARTESIAN_POINT('',(-2.29999994859099,-0.28,3.59999991953373));
#1274=CARTESIAN_POINT('Ctrl Pts',(-1.39999996870756,-0.28,3.59999991953373));
#1275=CARTESIAN_POINT('Ctrl Pts',(-1.43599996790279,-0.28,3.59999991953312));
#1276=CARTESIAN_POINT('Ctrl Pts',(-1.50799996629326,-0.28,3.59999991953205));
#1277=CARTESIAN_POINT('Ctrl Pts',(-1.61599996387908,-0.28,3.59999991953097));
#1278=CARTESIAN_POINT('Ctrl Pts',(-1.75999996066035,-0.28,3.59999991953045));
#1279=CARTESIAN_POINT('Ctrl Pts',(-1.93999995663714,-0.28,3.59999991953087));
#1280=CARTESIAN_POINT('Ctrl Pts',(-2.08399995341866,-0.28,3.59999991953176));
#1281=CARTESIAN_POINT('Ctrl Pts',(-2.19199995100482,-0.28,3.59999991953266));
#1282=CARTESIAN_POINT('Ctrl Pts',(-2.2639999493956,-0.28,3.59999991953336));
#1283=CARTESIAN_POINT('Ctrl Pts',(-2.29999994859099,-0.28,3.59999991953373));
#1284=CARTESIAN_POINT('',(-0.899999979883432,-0.28,-0.999999977648258));
#1285=CARTESIAN_POINT('Ctrl Pts',(-2.29999994859099,-0.28,3.59999991953373));
#1286=CARTESIAN_POINT('Ctrl Pts',(-2.32341041278215,-0.28,3.57949312029068));
#1287=CARTESIAN_POINT('Ctrl Pts',(-2.36361534977068,-0.28,3.53799012657254));
#1288=CARTESIAN_POINT('Ctrl Pts',(-2.40407705263062,-0.28,3.47426655886555));
#1289=CARTESIAN_POINT('Ctrl Pts',(-2.41802621633771,-0.28,3.38635010124132));
#1290=CARTESIAN_POINT('Ctrl Pts',(-2.36897525082906,-0.28,3.27039055837494));
#1291=CARTESIAN_POINT('Ctrl Pts',(-2.2566999079187,-0.28,3.14528328404667));
#1292=CARTESIAN_POINT('Ctrl Pts',(-2.09097079115102,-0.28,3.00470771991733));
#1293=CARTESIAN_POINT('Ctrl Pts',(-1.88828048171247,-0.28,2.83922524469351));
#1294=CARTESIAN_POINT('Ctrl Pts',(-1.66813532832274,-0.28,2.63809567715393));
#1295=CARTESIAN_POINT('Ctrl Pts',(-1.45046350547849,-0.28,2.39076954799696));
#1296=CARTESIAN_POINT('Ctrl Pts',(-1.25292047410777,-0.28,2.08844117743948));
#1297=CARTESIAN_POINT('Ctrl Pts',(-1.08760794365651,-0.28,1.72621604681021));
#1298=CARTESIAN_POINT('Ctrl Pts',(-0.961496616239141,-0.28,1.30256168699072));
#1299=CARTESIAN_POINT('Ctrl Pts',(-0.878106785660455,-0.28,0.817903166906972));
#1300=CARTESIAN_POINT('Ctrl Pts',(-0.838539281831788,-0.28,0.273767092960259));
#1301=CARTESIAN_POINT('Ctrl Pts',(-0.841747552988912,-0.28,-0.207685249470979));
#1302=CARTESIAN_POINT('Ctrl Pts',(-0.863431109791794,-0.28,-0.594074735187506));
#1303=CARTESIAN_POINT('Ctrl Pts',(-0.886392708255952,-0.28,-0.862831011437914));
#1304=CARTESIAN_POINT('Ctrl Pts',(-0.899999979883432,-0.28,-0.999999977648258));
#1305=CARTESIAN_POINT('',(-0.299999993294477,-0.28,-0.999999977648258));
#1306=CARTESIAN_POINT('',(-0.299999993294477,-0.28,-0.999999977648258));
#1307=CARTESIAN_POINT('',(-0.299999993294477,-0.28,2.49999994412065));
#1308=CARTESIAN_POINT('Origin',(-2.29999994859099,0.,3.59999991953373));
#1309=CARTESIAN_POINT('',(-1.39999996870756,0.28,3.59999991953373));
#1310=CARTESIAN_POINT('',(-1.39999996870756,0.,3.59999991953373));
#1311=CARTESIAN_POINT('',(-2.29999994859099,0.28,3.59999991953373));
#1312=CARTESIAN_POINT('Ctrl Pts',(-2.29999994859099,0.28,3.59999991953373));
#1313=CARTESIAN_POINT('Ctrl Pts',(-2.2639999493956,0.28,3.59999991953336));
#1314=CARTESIAN_POINT('Ctrl Pts',(-2.19199995100482,0.28,3.59999991953266));
#1315=CARTESIAN_POINT('Ctrl Pts',(-2.08399995341866,0.28,3.59999991953176));
#1316=CARTESIAN_POINT('Ctrl Pts',(-1.93999995663714,0.28,3.59999991953087));
#1317=CARTESIAN_POINT('Ctrl Pts',(-1.75999996066035,0.28,3.59999991953045));
#1318=CARTESIAN_POINT('Ctrl Pts',(-1.61599996387908,0.28,3.59999991953097));
#1319=CARTESIAN_POINT('Ctrl Pts',(-1.50799996629326,0.28,3.59999991953205));
#1320=CARTESIAN_POINT('Ctrl Pts',(-1.43599996790279,0.28,3.59999991953312));
#1321=CARTESIAN_POINT('Ctrl Pts',(-1.39999996870756,0.28,3.59999991953373));
#1322=CARTESIAN_POINT('',(-2.29999994859099,0.,3.59999991953373));
#1323=CARTESIAN_POINT('Ctrl Pts',(-0.899999979883432,-0.28,-0.999999977648258));
#1324=CARTESIAN_POINT('Ctrl Pts',(-0.899999979883432,0.28,-0.999999977648258));
#1325=CARTESIAN_POINT('Ctrl Pts',(-0.886392708255952,-0.28,-0.862831011437914));
#1326=CARTESIAN_POINT('Ctrl Pts',(-0.886392708255952,0.28,-0.862831011437914));
#1327=CARTESIAN_POINT('Ctrl Pts',(-0.863431109791794,-0.28,-0.594074735187506));
#1328=CARTESIAN_POINT('Ctrl Pts',(-0.863431109791794,0.28,-0.594074735187506));
#1329=CARTESIAN_POINT('Ctrl Pts',(-0.841747552988912,-0.28,-0.207685249470979));
#1330=CARTESIAN_POINT('Ctrl Pts',(-0.841747552988912,0.28,-0.207685249470979));
#1331=CARTESIAN_POINT('Ctrl Pts',(-0.838539281831788,-0.28,0.273767092960259));
#1332=CARTESIAN_POINT('Ctrl Pts',(-0.838539281831788,0.28,0.273767092960259));
#1333=CARTESIAN_POINT('Ctrl Pts',(-0.878106785660455,-0.28,0.817903166906972));
#1334=CARTESIAN_POINT('Ctrl Pts',(-0.878106785660455,0.28,0.817903166906972));
#1335=CARTESIAN_POINT('Ctrl Pts',(-0.961496616239141,-0.28,1.30256168699072));
#1336=CARTESIAN_POINT('Ctrl Pts',(-0.961496616239141,0.28,1.30256168699072));
#1337=CARTESIAN_POINT('Ctrl Pts',(-1.08760794365651,-0.28,1.72621604681021));
#1338=CARTESIAN_POINT('Ctrl Pts',(-1.08760794365651,0.28,1.72621604681021));
#1339=CARTESIAN_POINT('Ctrl Pts',(-1.25292047410777,-0.28,2.08844117743948));
#1340=CARTESIAN_POINT('Ctrl Pts',(-1.25292047410777,0.28,2.08844117743948));
#1341=CARTESIAN_POINT('Ctrl Pts',(-1.45046350547849,-0.28,2.39076954799696));
#1342=CARTESIAN_POINT('Ctrl Pts',(-1.45046350547849,0.28,2.39076954799696));
#1343=CARTESIAN_POINT('Ctrl Pts',(-1.66813532832274,-0.28,2.63809567715393));
#1344=CARTESIAN_POINT('Ctrl Pts',(-1.66813532832274,0.28,2.63809567715393));
#1345=CARTESIAN_POINT('Ctrl Pts',(-1.88828048171247,-0.28,2.83922524469351));
#1346=CARTESIAN_POINT('Ctrl Pts',(-1.88828048171247,0.28,2.83922524469351));
#1347=CARTESIAN_POINT('Ctrl Pts',(-2.09097079115102,-0.28,3.00470771991733));
#1348=CARTESIAN_POINT('Ctrl Pts',(-2.09097079115102,0.28,3.00470771991733));
#1349=CARTESIAN_POINT('Ctrl Pts',(-2.2566999079187,-0.28,3.14528328404667));
#1350=CARTESIAN_POINT('Ctrl Pts',(-2.2566999079187,0.28,3.14528328404667));
#1351=CARTESIAN_POINT('Ctrl Pts',(-2.36897525082906,-0.28,3.27039055837494));
#1352=CARTESIAN_POINT('Ctrl Pts',(-2.36897525082906,0.28,3.27039055837494));
#1353=CARTESIAN_POINT('Ctrl Pts',(-2.41802621633771,-0.28,3.38635010124132));
#1354=CARTESIAN_POINT('Ctrl Pts',(-2.41802621633771,0.28,3.38635010124132));
#1355=CARTESIAN_POINT('Ctrl Pts',(-2.40407705263062,-0.28,3.47426655886555));
#1356=CARTESIAN_POINT('Ctrl Pts',(-2.40407705263062,0.28,3.47426655886555));
#1357=CARTESIAN_POINT('Ctrl Pts',(-2.36361534977068,-0.28,3.53799012657254));
#1358=CARTESIAN_POINT('Ctrl Pts',(-2.36361534977068,0.28,3.53799012657254));
#1359=CARTESIAN_POINT('Ctrl Pts',(-2.32341041278215,-0.28,3.57949312029068));
#1360=CARTESIAN_POINT('Ctrl Pts',(-2.32341041278215,0.28,3.57949312029068));
#1361=CARTESIAN_POINT('Ctrl Pts',(-2.29999994859099,-0.28,3.59999991953373));
#1362=CARTESIAN_POINT('Ctrl Pts',(-2.29999994859099,0.28,3.59999991953373));
#1363=CARTESIAN_POINT('',(-0.899999979883432,0.28,-0.999999977648258));
#1364=CARTESIAN_POINT('Ctrl Pts',(-0.899999979883432,0.28,-0.999999977648258));
#1365=CARTESIAN_POINT('Ctrl Pts',(-0.886392708255952,0.28,-0.862831011437914));
#1366=CARTESIAN_POINT('Ctrl Pts',(-0.863431109791794,0.28,-0.594074735187506));
#1367=CARTESIAN_POINT('Ctrl Pts',(-0.841747552988912,0.28,-0.207685249470979));
#1368=CARTESIAN_POINT('Ctrl Pts',(-0.838539281831788,0.28,0.273767092960259));
#1369=CARTESIAN_POINT('Ctrl Pts',(-0.878106785660455,0.28,0.817903166906972));
#1370=CARTESIAN_POINT('Ctrl Pts',(-0.961496616239141,0.28,1.30256168699072));
#1371=CARTESIAN_POINT('Ctrl Pts',(-1.08760794365651,0.28,1.72621604681021));
#1372=CARTESIAN_POINT('Ctrl Pts',(-1.25292047410777,0.28,2.08844117743948));
#1373=CARTESIAN_POINT('Ctrl Pts',(-1.45046350547849,0.28,2.39076954799696));
#1374=CARTESIAN_POINT('Ctrl Pts',(-1.66813532832274,0.28,2.63809567715393));
#1375=CARTESIAN_POINT('Ctrl Pts',(-1.88828048171247,0.28,2.83922524469351));
#1376=CARTESIAN_POINT('Ctrl Pts',(-2.09097079115102,0.28,3.00470771991733));
#1377=CARTESIAN_POINT('Ctrl Pts',(-2.2566999079187,0.28,3.14528328404667));
#1378=CARTESIAN_POINT('Ctrl Pts',(-2.36897525082906,0.28,3.27039055837494));
#1379=CARTESIAN_POINT('Ctrl Pts',(-2.41802621633771,0.28,3.38635010124132));
#1380=CARTESIAN_POINT('Ctrl Pts',(-2.40407705263062,0.28,3.47426655886555));
#1381=CARTESIAN_POINT('Ctrl Pts',(-2.36361534977068,0.28,3.53799012657254));
#1382=CARTESIAN_POINT('Ctrl Pts',(-2.32341041278215,0.28,3.57949312029068));
#1383=CARTESIAN_POINT('Ctrl Pts',(-2.29999994859099,0.28,3.59999991953373));
#1384=CARTESIAN_POINT('',(-0.899999979883432,0.,-0.999999977648258));
#1385=CARTESIAN_POINT('Origin',(-0.299999993294477,0.,-0.999999977648258));
#1386=CARTESIAN_POINT('',(-0.299999993294477,0.28,-0.999999977648258));
#1387=CARTESIAN_POINT('',(-0.299999993294477,0.28,-0.999999977648258));
#1388=CARTESIAN_POINT('',(-0.299999993294477,0.,-0.999999977648258));
#1389=CARTESIAN_POINT('Origin',(-0.299999993294477,0.,2.49999994412065));
#1390=CARTESIAN_POINT('',(-0.299999993294477,0.28,2.49999994412065));
#1391=CARTESIAN_POINT('',(-0.299999993294477,0.28,2.49999994412065));
#1392=CARTESIAN_POINT('',(-0.299999993294477,0.,2.49999994412065));
#1393=CARTESIAN_POINT('Ctrl Pts',(-1.39999996870756,-0.28,3.59999991953373));
#1394=CARTESIAN_POINT('Ctrl Pts',(-1.39999996870756,0.28,3.59999991953373));
#1395=CARTESIAN_POINT('Ctrl Pts',(-1.38760528721507,-0.28,3.59118394093451));
#1396=CARTESIAN_POINT('Ctrl Pts',(-1.38760528721507,0.28,3.59118394093451));
#1397=CARTESIAN_POINT('Ctrl Pts',(-1.36216426354802,-0.28,3.57219252201261));
#1398=CARTESIAN_POINT('Ctrl Pts',(-1.36216426354802,0.28,3.57219252201261));
#1399=CARTESIAN_POINT('Ctrl Pts',(-1.32204777984099,-0.28,3.53962707683876));
#1400=CARTESIAN_POINT('Ctrl Pts',(-1.32204777984099,0.28,3.53962707683876));
#1401=CARTESIAN_POINT('Ctrl Pts',(-1.26462051432162,-0.28,3.48798994743595));
#1402=CARTESIAN_POINT('Ctrl Pts',(-1.26462051432162,0.28,3.48798994743595));
#1403=CARTESIAN_POINT('Ctrl Pts',(-1.18623830582404,-0.28,3.40965852290464));
#1404=CARTESIAN_POINT('Ctrl Pts',(-1.18623830582404,0.28,3.40965852290464));
#1405=CARTESIAN_POINT('Ctrl Pts',(-1.10145511576521,-0.28,3.3178922041692));
#1406=CARTESIAN_POINT('Ctrl Pts',(-1.10145511576521,0.28,3.3178922041692));
#1407=CARTESIAN_POINT('Ctrl Pts',(-1.01092357547804,-0.28,3.21392827614261));
#1408=CARTESIAN_POINT('Ctrl Pts',(-1.01092357547804,0.28,3.21392827614261));
#1409=CARTESIAN_POINT('Ctrl Pts',(-0.915978809051054,-0.28,3.10034370077803));
#1410=CARTESIAN_POINT('Ctrl Pts',(-0.915978809051054,0.28,3.10034370077803));
#1411=CARTESIAN_POINT('Ctrl Pts',(-0.818953795402394,-0.28,2.98168464834851));
#1412=CARTESIAN_POINT('Ctrl Pts',(-0.818953795402394,0.28,2.98168464834851));
#1413=CARTESIAN_POINT('Ctrl Pts',(-0.722841180557469,-0.28,2.8637996670072));
#1414=CARTESIAN_POINT('Ctrl Pts',(-0.722841180557469,0.28,2.8637996670072));
#1415=CARTESIAN_POINT('Ctrl Pts',(-0.630909884135601,-0.28,2.75308468841693));
#1416=CARTESIAN_POINT('Ctrl Pts',(-0.630909884135601,0.28,2.75308468841693));
#1417=CARTESIAN_POINT('Ctrl Pts',(-0.546329180937308,-0.28,2.65574660262984));
#1418=CARTESIAN_POINT('Ctrl Pts',(-0.546329180937308,0.28,2.65574660262984));
#1419=CARTESIAN_POINT('Ctrl Pts',(-0.471821935579979,-0.28,2.57712500048386));
#1420=CARTESIAN_POINT('Ctrl Pts',(-0.471821935579979,0.28,2.57712500048386));
#1421=CARTESIAN_POINT('Ctrl Pts',(-0.409167150826685,-0.28,2.52072466416223));
#1422=CARTESIAN_POINT('Ctrl Pts',(-0.409167150826685,0.28,2.52072466416223));
#1423=CARTESIAN_POINT('Ctrl Pts',(-0.359082468841511,-0.28,2.48798470364617));
#1424=CARTESIAN_POINT('Ctrl Pts',(-0.359082468841511,0.28,2.48798470364617));
#1425=CARTESIAN_POINT('Ctrl Pts',(-0.329183102698715,-0.28,2.4809673641258));
#1426=CARTESIAN_POINT('Ctrl Pts',(-0.329183102698715,0.28,2.4809673641258));
#1427=CARTESIAN_POINT('Ctrl Pts',(-0.312409530165866,-0.28,2.48636659812783));
#1428=CARTESIAN_POINT('Ctrl Pts',(-0.312409530165866,0.28,2.48636659812783));
#1429=CARTESIAN_POINT('Ctrl Pts',(-0.303720894422585,-0.28,2.49467131624505));
#1430=CARTESIAN_POINT('Ctrl Pts',(-0.303720894422585,0.28,2.49467131624505));
#1431=CARTESIAN_POINT('Ctrl Pts',(-0.299999993294477,-0.28,2.49999994412065));
#1432=CARTESIAN_POINT('Ctrl Pts',(-0.299999993294477,0.28,2.49999994412065));
#1433=CARTESIAN_POINT('Ctrl Pts',(-1.39999996870756,0.28,3.59999991953373));
#1434=CARTESIAN_POINT('Ctrl Pts',(-1.38760528721507,0.28,3.59118394093451));
#1435=CARTESIAN_POINT('Ctrl Pts',(-1.36216426354802,0.28,3.57219252201261));
#1436=CARTESIAN_POINT('Ctrl Pts',(-1.32204777984099,0.28,3.53962707683876));
#1437=CARTESIAN_POINT('Ctrl Pts',(-1.26462051432162,0.28,3.48798994743595));
#1438=CARTESIAN_POINT('Ctrl Pts',(-1.18623830582404,0.28,3.40965852290464));
#1439=CARTESIAN_POINT('Ctrl Pts',(-1.10145511576521,0.28,3.3178922041692));
#1440=CARTESIAN_POINT('Ctrl Pts',(-1.01092357547804,0.28,3.21392827614261));
#1441=CARTESIAN_POINT('Ctrl Pts',(-0.915978809051054,0.28,3.10034370077803));
#1442=CARTESIAN_POINT('Ctrl Pts',(-0.818953795402394,0.28,2.98168464834851));
#1443=CARTESIAN_POINT('Ctrl Pts',(-0.722841180557469,0.28,2.8637996670072));
#1444=CARTESIAN_POINT('Ctrl Pts',(-0.630909884135601,0.28,2.75308468841693));
#1445=CARTESIAN_POINT('Ctrl Pts',(-0.546329180937308,0.28,2.65574660262984));
#1446=CARTESIAN_POINT('Ctrl Pts',(-0.471821935579979,0.28,2.57712500048386));
#1447=CARTESIAN_POINT('Ctrl Pts',(-0.409167150826685,0.28,2.52072466416223));
#1448=CARTESIAN_POINT('Ctrl Pts',(-0.359082468841511,0.28,2.48798470364617));
#1449=CARTESIAN_POINT('Ctrl Pts',(-0.329183102698715,0.28,2.4809673641258));
#1450=CARTESIAN_POINT('Ctrl Pts',(-0.312409530165866,0.28,2.48636659812783));
#1451=CARTESIAN_POINT('Ctrl Pts',(-0.303720894422585,0.28,2.49467131624505));
#1452=CARTESIAN_POINT('Ctrl Pts',(-0.299999993294477,0.28,2.49999994412065));
#1453=CARTESIAN_POINT('Origin',(-1.35901310481609,0.28,1.29999997094274));
#1454=UNCERTAINTY_MEASURE_WITH_UNIT(LENGTH_MEASURE(0.01),#1458,
'DISTANCE_ACCURACY_VALUE',
'Maximum model space distance between geometric entities at asserted c
onnectivities');
#1455=UNCERTAINTY_MEASURE_WITH_UNIT(LENGTH_MEASURE(0.01),#1458,
'DISTANCE_ACCURACY_VALUE',
'Maximum model space distance between geometric entities at asserted c
onnectivities');
#1456=(
GEOMETRIC_REPRESENTATION_CONTEXT(3)
GLOBAL_UNCERTAINTY_ASSIGNED_CONTEXT((#1454))
GLOBAL_UNIT_ASSIGNED_CONTEXT((#1458,#1460,#1461))
REPRESENTATION_CONTEXT('','3D')
);
#1457=(
GEOMETRIC_REPRESENTATION_CONTEXT(3)
GLOBAL_UNCERTAINTY_ASSIGNED_CONTEXT((#1455))
GLOBAL_UNIT_ASSIGNED_CONTEXT((#1458,#1460,#1461))
REPRESENTATION_CONTEXT('','3D')
);
#1458=(
LENGTH_UNIT()
NAMED_UNIT(*)
SI_UNIT(.MILLI.,.METRE.)
);
#1459=(
LENGTH_UNIT()
NAMED_UNIT(*)
SI_UNIT($,.METRE.)
);
#1460=(
NAMED_UNIT(*)
PLANE_ANGLE_UNIT()
SI_UNIT($,.RADIAN.)
);
#1461=(
NAMED_UNIT(*)
SI_UNIT($,.STERADIAN.)
SOLID_ANGLE_UNIT()
);
#1462=SHAPE_DEFINITION_REPRESENTATION(#1463,#1464);
#1463=PRODUCT_DEFINITION_SHAPE('',$,#1466);
#1464=SHAPE_REPRESENTATION('',(#673),#1456);
#1465=PRODUCT_DEFINITION_CONTEXT('part definition',#1470,'design');
#1466=PRODUCT_DEFINITION('RGB LED','RGB LED v0',#1467,#1465);
#1467=PRODUCT_DEFINITION_FORMATION('',$,#1472);
#1468=PRODUCT_RELATED_PRODUCT_CATEGORY('RGB LED v0','RGB LED v0',(#1472));
#1469=APPLICATION_PROTOCOL_DEFINITION('international standard',
'automotive_design',2009,#1470);
#1470=APPLICATION_CONTEXT(
'Core Data for Automotive Mechanical Design Process');
#1471=PRODUCT_CONTEXT('part definition',#1470,'mechanical');
#1472=PRODUCT('RGB LED','RGB LED v0',$,(#1471));
#1473=PRESENTATION_STYLE_ASSIGNMENT((#1476));
#1474=PRESENTATION_STYLE_ASSIGNMENT((#1477));
#1475=PRESENTATION_STYLE_ASSIGNMENT((#1478));
#1476=SURFACE_STYLE_USAGE(.BOTH.,#1479);
#1477=SURFACE_STYLE_USAGE(.BOTH.,#1480);
#1478=SURFACE_STYLE_USAGE(.BOTH.,#1481);
#1479=SURFACE_SIDE_STYLE('',(#1482));
#1480=SURFACE_SIDE_STYLE('',(#1483));
#1481=SURFACE_SIDE_STYLE('',(#1484));
#1482=SURFACE_STYLE_FILL_AREA(#1485);
#1483=SURFACE_STYLE_FILL_AREA(#1486);
#1484=SURFACE_STYLE_FILL_AREA(#1487);
#1485=FILL_AREA_STYLE('Steel - Satin',(#1488));
#1486=FILL_AREA_STYLE('Glass - Clouds',(#1489));
#1487=FILL_AREA_STYLE('Silver - Polished',(#1490));
#1488=FILL_AREA_STYLE_COLOUR('Steel - Satin',#1491);
#1489=FILL_AREA_STYLE_COLOUR('Glass - Clouds',#1492);
#1490=FILL_AREA_STYLE_COLOUR('Silver - Polished',#1493);
#1491=COLOUR_RGB('Steel - Satin',0.627450980392157,0.627450980392157,0.627450980392157);
#1492=COLOUR_RGB('Glass - Clouds',0.964705882352941,0.964705882352941,0.952941176470588);
#1493=COLOUR_RGB('Silver - Polished',0.984313725490196,0.980392156862745,
0.96078431372549);
ENDSEC;
END-ISO-10303-21;
